<?xml version="1.0" encoding="UTF-8" standalone="no"?>
<!DOCTYPE svg PUBLIC "-//W3C//DTD SVG 1.1//EN"
 "http://www.w3.org/Graphics/SVG/1.1/DTD/svg11.dtd">
<!-- Generated by graphviz version 2.43.0 (0)
 -->
<!-- Title: classes_clak Pages: 1 -->
<svg width="968pt" height="229pt"
 viewBox="0.00 0.00 967.50 229.00" xmlns="http://www.w3.org/2000/svg" xmlns:xlink="http://www.w3.org/1999/xlink">
<g id="graph0" class="graph" transform="scale(1 1) rotate(0) translate(4 225)">
<title>classes_clak</title>
<polygon fill="white" stroke="transparent" points="-4,4 -4,-225 963.5,-225 963.5,4 -4,4"/>
<!-- clak.fields.ArgParseItem -->
<g id="node1" class="node">
<title>clak.fields.ArgParseItem</title>
<polygon fill="none" stroke="black" points="237,-121.5 237,-220.5 428,-220.5 428,-121.5 237,-121.5"/>
<text text-anchor="start" x="245" y="-205.3" font-family="Times,serif" font-size="14.00">clak.fields.ArgParseItem</text>
<polyline fill="none" stroke="black" points="237,-197.5 428,-197.5 "/>
<text text-anchor="start" x="286" y="-182.3" font-family="Times,serif" font-size="14.00">args : tuple</text>
<text text-anchor="start" x="286" y="-167.3" font-family="Times,serif" font-size="14.00">destination</text>
<text text-anchor="start" x="286" y="-152.3" font-family="Times,serif" font-size="14.00">kwargs : dict</text>
<polyline fill="none" stroke="black" points="237,-144.5 428,-144.5 "/>
<text text-anchor="start" x="249" y="-129.3" font-family="Times,serif" font-size="14.00">build_params(dest: str)</text>
</g>
<!-- clak.fields.Argument -->
<g id="node2" class="node">
<title>clak.fields.Argument</title>
<polygon fill="none" stroke="black" points="0,-7.1 0,-77.9 177,-77.9 177,-7.1 0,-7.1"/>
<text text-anchor="start" x="14.5" y="-62.7" font-family="Times,serif" font-size="14.00">clak.fields.Argument</text>
<polyline fill="none" stroke="black" points="0,-54.9 177,-54.9 "/>
<polyline fill="none" stroke="black" points="0,-30.1 177,-30.1 "/>
<text text-anchor="start" x="8" y="-14.9" font-family="Times,serif" font-size="14.00">create_arg(key, config)</text>
</g>
<!-- clak.fields.Argument&#45;&gt;clak.fields.ArgParseItem -->
<g id="edge1" class="edge">
<title>clak.fields.Argument&#45;&gt;clak.fields.ArgParseItem</title>
<path fill="none" stroke="black" d="M155.17,-78.07C178.27,-90.04 204.73,-103.76 230.03,-116.88"/>
<polygon fill="none" stroke="black" points="228.44,-119.99 238.93,-121.49 231.66,-113.78 228.44,-119.99"/>
</g>
<!-- clak.fields.Command -->
<g id="node3" class="node">
<title>clak.fields.Command</title>
<polygon fill="none" stroke="black" points="195.5,-0.5 195.5,-84.5 959.5,-84.5 959.5,-0.5 195.5,-0.5"/>
<text text-anchor="start" x="503.5" y="-69.3" font-family="Times,serif" font-size="14.00">clak.fields.Command</text>
<polyline fill="none" stroke="black" points="195.5,-61.5 959.5,-61.5 "/>
<text text-anchor="start" x="567.5" y="-46.3" font-family="Times,serif" font-size="14.00">cls</text>
<polyline fill="none" stroke="black" points="195.5,-38.5 959.5,-38.5 "/>
<text text-anchor="start" x="203.5" y="-23.3" font-family="Times,serif" font-size="14.00">add_parser(key: str, other_parser: &#39;ArgumentParserPlus&#39;, parent_config: &#39;ArgumentParserPlus&#39;, help: str)</text>
<text text-anchor="start" x="203.5" y="-8.3" font-family="Times,serif" font-size="14.00">create_arg(key, config)</text>
</g>
<!-- clak.fields.Command&#45;&gt;clak.fields.ArgParseItem -->
<g id="edge2" class="edge">
<title>clak.fields.Command&#45;&gt;clak.fields.ArgParseItem</title>
<path fill="none" stroke="black" d="M497.96,-84.57C478.03,-94.86 456.36,-106.05 435.48,-116.83"/>
<polygon fill="none" stroke="black" points="433.86,-113.73 426.58,-121.42 437.07,-119.95 433.86,-113.73"/>
</g>
</g>
</svg>
