<?xml version="1.0" encoding="UTF-8" standalone="no"?>
<!DOCTYPE svg PUBLIC "-//W3C//DTD SVG 1.1//EN"
 "http://www.w3.org/Graphics/SVG/1.1/DTD/svg11.dtd">
<!-- Generated by graphviz version 12.1.2 (0)
 -->
<!-- Title: classes_clak Pages: 1 -->
<svg width="968pt" height="249pt"
 viewBox="0.00 0.00 967.88 249.25" xmlns="http://www.w3.org/2000/svg" xmlns:xlink="http://www.w3.org/1999/xlink">
<g id="graph0" class="graph" transform="scale(1 1) rotate(0) translate(4 245.25)">
<title>classes_clak</title>
<polygon fill="white" stroke="none" points="-4,4 -4,-245.25 963.88,-245.25 963.88,4 -4,4"/>
<!-- clak.fields.ArgParseItem -->
<g id="node1" class="node">
<title>clak.fields.ArgParseItem</title>
<polygon fill="none" stroke="black" points="237.25,-130.5 237.25,-240.75 428,-240.75 428,-130.5 237.25,-130.5"/>
<text text-anchor="start" x="245.25" y="-223.45" font-family="Times,serif" font-size="14.00">clak.fields.ArgParseItem</text>
<polyline fill="none" stroke="black" points="237.25,-215.5 428,-215.5"/>
<text text-anchor="start" x="286.5" y="-198.2" font-family="Times,serif" font-size="14.00">args : tuple</text>
<text text-anchor="start" x="286.5" y="-180.95" font-family="Times,serif" font-size="14.00">destination</text>
<text text-anchor="start" x="286.5" y="-163.7" font-family="Times,serif" font-size="14.00">kwargs : dict</text>
<polyline fill="none" stroke="black" points="237.25,-155.75 428,-155.75"/>
<text text-anchor="start" x="249.38" y="-138.45" font-family="Times,serif" font-size="14.00">build_params(dest: str)</text>
</g>
<!-- clak.fields.Argument -->
<g id="node2" class="node">
<title>clak.fields.Argument</title>
<polygon fill="none" stroke="black" points="0,-21.75 0,-72.25 177.25,-72.25 177.25,-21.75 0,-21.75"/>
<text text-anchor="start" x="14.75" y="-54.95" font-family="Times,serif" font-size="14.00">clak.fields.Argument</text>
<polyline fill="none" stroke="black" points="0,-47 177.25,-47"/>
<polyline fill="none" stroke="black" points="0,-47 177.25,-47"/>
<text text-anchor="start" x="8" y="-29.7" font-family="Times,serif" font-size="14.00">create_arg(key, config)</text>
</g>
<!-- clak.fields.Argument&#45;&gt;clak.fields.ArgParseItem -->
<g id="edge1" class="edge">
<title>clak.fields.Argument&#45;&gt;clak.fields.ArgParseItem</title>
<path fill="none" stroke="black" d="M132.81,-72.74C159.25,-87.54 194.05,-107.03 227.19,-125.59"/>
<polygon fill="none" stroke="black" points="225.19,-128.48 235.63,-130.31 228.61,-122.37 225.19,-128.48"/>
</g>
<!-- clak.fields.Command -->
<g id="node3" class="node">
<title>clak.fields.Command</title>
<polygon fill="none" stroke="black" points="195.38,-0.5 195.38,-93.5 959.88,-93.5 959.88,-0.5 195.38,-0.5"/>
<text text-anchor="start" x="503.38" y="-76.2" font-family="Times,serif" font-size="14.00">clak.fields.Command</text>
<polyline fill="none" stroke="black" points="195.38,-68.25 959.88,-68.25"/>
<text text-anchor="start" x="567.88" y="-50.95" font-family="Times,serif" font-size="14.00">cls</text>
<polyline fill="none" stroke="black" points="195.38,-43 959.88,-43"/>
<text text-anchor="start" x="203.38" y="-25.7" font-family="Times,serif" font-size="14.00">add_parser(key: str, other_parser: &#39;ArgumentParserPlus&#39;, parent_config: &#39;ArgumentParserPlus&#39;, help: str)</text>
<text text-anchor="start" x="203.38" y="-8.45" font-family="Times,serif" font-size="14.00">create_arg(key, config)</text>
</g>
<!-- clak.fields.Command&#45;&gt;clak.fields.ArgParseItem -->
<g id="edge2" class="edge">
<title>clak.fields.Command&#45;&gt;clak.fields.ArgParseItem</title>
<path fill="none" stroke="black" d="M495.36,-93.87C477.01,-104.11 457.31,-115.09 438.17,-125.77"/>
<polygon fill="none" stroke="black" points="436.57,-122.65 429.54,-130.58 439.98,-128.76 436.57,-122.65"/>
</g>
</g>
</svg>
