<?xml version="1.0" encoding="UTF-8" standalone="no"?>
<!DOCTYPE svg PUBLIC "-//W3C//DTD SVG 1.1//EN"
 "http://www.w3.org/Graphics/SVG/1.1/DTD/svg11.dtd">
<!-- Generated by graphviz version 2.43.0 (0)
 -->
<!-- Title: classes_clak Pages: 1 -->
<svg width="602pt" height="93pt"
 viewBox="0.00 0.00 601.50 93.00" xmlns="http://www.w3.org/2000/svg" xmlns:xlink="http://www.w3.org/1999/xlink">
<g id="graph0" class="graph" transform="scale(1 1) rotate(0) translate(4 89)">
<title>classes_clak</title>
<polygon fill="white" stroke="transparent" points="-4,4 -4,-89 597.5,-89 597.5,4 -4,4"/>
<!-- clak.argparse_.ArgumentParserPlus -->
<g id="node1" class="node">
<title>clak.argparse_.ArgumentParserPlus</title>
<polygon fill="none" stroke="black" points="0,-0.5 0,-84.5 273,-84.5 273,-0.5 0,-0.5"/>
<text text-anchor="start" x="8" y="-69.3" font-family="Times,serif" font-size="14.00">clak.argparse_.ArgumentParserPlus</text>
<polyline fill="none" stroke="black" points="0,-61.5 273,-61.5 "/>
<text text-anchor="start" x="46" y="-46.3" font-family="Times,serif" font-size="14.00">clak_instance : NoneType</text>
<polyline fill="none" stroke="black" points="0,-38.5 273,-38.5 "/>
<text text-anchor="start" x="32" y="-23.3" font-family="Times,serif" font-size="14.00">error(message)</text>
<text text-anchor="start" x="32" y="-8.3" font-family="Times,serif" font-size="14.00">parse_args(args, namespace)</text>
</g>
<!-- clak.argparse_.RecursiveHelpFormatter -->
<g id="node2" class="node">
<title>clak.argparse_.RecursiveHelpFormatter</title>
<polygon fill="none" stroke="black" points="291.5,-8 291.5,-77 593.5,-77 593.5,-8 291.5,-8"/>
<text text-anchor="start" x="299.5" y="-61.8" font-family="Times,serif" font-size="14.00">clak.argparse_.RecursiveHelpFormatter</text>
<polyline fill="none" stroke="black" points="291.5,-54 593.5,-54 "/>
<text text-anchor="start" x="332" y="-38.8" font-family="Times,serif" font-size="14.00">config__max_help_position : int</text>
<polyline fill="none" stroke="black" points="291.5,-31 593.5,-31 "/>
<text text-anchor="start" x="440" y="-15.8" font-family="Times,serif" font-size="14.00"> </text>
</g>
</g>
</svg>
