<?xml version="1.0" encoding="UTF-8" standalone="no"?>
<!DOCTYPE svg PUBLIC "-//W3C//DTD SVG 1.1//EN"
 "http://www.w3.org/Graphics/SVG/1.1/DTD/svg11.dtd">
<!-- Generated by graphviz version 2.43.0 (0)
 -->
<!-- Title: classes_clak Pages: 1 -->
<svg width="602pt" height="78pt"
 viewBox="0.00 0.00 601.50 78.00" xmlns="http://www.w3.org/2000/svg" xmlns:xlink="http://www.w3.org/1999/xlink">
<g id="graph0" class="graph" transform="scale(1 1) rotate(0) translate(4 74)">
<title>classes_clak</title>
<polygon fill="white" stroke="transparent" points="-4,4 -4,-74 597.5,-74 597.5,4 -4,4"/>
<!-- clak.argparse_.ArgumentParserPlus -->
<g id="node1" class="node">
<title>clak.argparse_.ArgumentParserPlus</title>
<polygon fill="none" stroke="black" points="0,-0.5 0,-69.5 273,-69.5 273,-0.5 0,-0.5"/>
<text text-anchor="start" x="8" y="-54.3" font-family="Times,serif" font-size="14.00">clak.argparse_.ArgumentParserPlus</text>
<polyline fill="none" stroke="black" points="0,-46.5 273,-46.5 "/>
<text text-anchor="start" x="46" y="-31.3" font-family="Times,serif" font-size="14.00">clak_instance : NoneType</text>
<polyline fill="none" stroke="black" points="0,-23.5 273,-23.5 "/>
<text text-anchor="start" x="32" y="-8.3" font-family="Times,serif" font-size="14.00">parse_args(args, namespace)</text>
</g>
<!-- clak.argparse_.RecursiveHelpFormatter -->
<g id="node2" class="node">
<title>clak.argparse_.RecursiveHelpFormatter</title>
<polygon fill="none" stroke="black" points="291.5,-0.5 291.5,-69.5 593.5,-69.5 593.5,-0.5 291.5,-0.5"/>
<text text-anchor="start" x="299.5" y="-54.3" font-family="Times,serif" font-size="14.00">clak.argparse_.RecursiveHelpFormatter</text>
<polyline fill="none" stroke="black" points="291.5,-46.5 593.5,-46.5 "/>
<text text-anchor="start" x="332" y="-31.3" font-family="Times,serif" font-size="14.00">config__max_help_position : int</text>
<polyline fill="none" stroke="black" points="291.5,-23.5 593.5,-23.5 "/>
<text text-anchor="start" x="440" y="-8.3" font-family="Times,serif" font-size="14.00"> </text>
</g>
</g>
</svg>
