<?xml version="1.0" encoding="UTF-8" standalone="no"?>
<!-- Created with Inkscape (http://www.inkscape.org/) -->

<svg
   width="512"
   height="512"
   viewBox="0 0 135.46665 135.46665"
   version="1.1"
   id="svg1"
   xml:space="preserve"
   inkscape:version="1.4 (e7c3feb100, 2024-10-09)"
   sodipodi:docname="logo.svg"
   xmlns:inkscape="http://www.inkscape.org/namespaces/inkscape"
   xmlns:sodipodi="http://sodipodi.sourceforge.net/DTD/sodipodi-0.dtd"
   xmlns="http://www.w3.org/2000/svg"
   xmlns:svg="http://www.w3.org/2000/svg"><sodipodi:namedview
     id="namedview1"
     pagecolor="#ffffff"
     bordercolor="#000000"
     borderopacity="0.25"
     inkscape:showpageshadow="2"
     inkscape:pageopacity="0.0"
     inkscape:pagecheckerboard="0"
     inkscape:deskcolor="#d1d1d1"
     inkscape:document-units="px"
     inkscape:zoom="0.57297175"
     inkscape:cx="15.707581"
     inkscape:cy="146.60409"
     inkscape:window-width="1920"
     inkscape:window-height="1025"
     inkscape:window-x="1920"
     inkscape:window-y="27"
     inkscape:window-maximized="1"
     inkscape:current-layer="svg1"
     showgrid="true"
     showguides="false"><inkscape:grid
       id="grid9"
       units="px"
       originx="0"
       originy="0"
       spacingx="0.2645833"
       spacingy="0.2645833"
       empcolor="#0099e5"
       empopacity="0.30196078"
       color="#0099e5"
       opacity="0.14901961"
       empspacing="5"
       enabled="true"
       visible="false" /><sodipodi:guide
       position="67.733322,153.19373"
       orientation="1,0"
       id="guide15"
       inkscape:locked="false" /><sodipodi:guide
       position="6.6145822,100.01249"
       orientation="1,0"
       id="guide16"
       inkscape:locked="false" /></sodipodi:namedview><defs
     id="defs1" /><rect
     style="opacity:1;fill:#64ff00;fill-opacity:1;fill-rule:evenodd;stroke:none;stroke-width:3.00243;stroke-miterlimit:7.2;stroke-dashoffset:5.75998;stroke-opacity:1"
     id="rect9"
     width="130.17497"
     height="130.17497"
     x="2.645833"
     y="2.645833" /><text
     xml:space="preserve"
     style="font-style:normal;font-variant:normal;font-weight:bold;font-stretch:normal;font-size:15.875px;line-height:14.241px;font-family:'Noto Serif Sinhala';-inkscape-font-specification:'Noto Serif Sinhala Bold';text-align:start;text-decoration-color:#000000;letter-spacing:0px;writing-mode:lr-tb;direction:ltr;text-anchor:start;white-space:pre;opacity:1;fill:#000000;fill-opacity:1;fill-rule:evenodd;stroke:none;stroke-width:5.09659;stroke-miterlimit:7.2;stroke-dashoffset:5.75998;stroke-opacity:1"
     x="5.5835075"
     y="107.15968"
     id="text2"
     transform="scale(0.99511805,1.0049059)"><tspan
       sodipodi:role="line"
       style="font-style:normal;font-variant:normal;font-weight:500;font-stretch:normal;font-size:15.875px;line-height:14.241px;font-family:'Source Code Pro';-inkscape-font-specification:'Source Code Pro Medium';text-align:start;letter-spacing:0px;text-anchor:start;fill:#000000;fill-opacity:1;stroke-width:5.09659"
       x="5.5835075"
       y="107.15968"
       id="tspan11">Command Line</tspan><tspan
       sodipodi:role="line"
       style="font-style:normal;font-variant:normal;font-weight:500;font-stretch:normal;font-size:15.875px;line-height:14.241px;font-family:'Source Code Pro';-inkscape-font-specification:'Source Code Pro Medium';text-align:start;letter-spacing:0px;text-anchor:start;fill:#000000;fill-opacity:1;stroke-width:5.09659"
       x="5.5835075"
       y="121.63199"
       id="tspan3">avec Klass</tspan></text><text
     xml:space="preserve"
     style="font-style:normal;font-variant:normal;font-weight:bold;font-stretch:normal;font-size:53.5413px;line-height:80.0503px;font-family:'Noto Serif Sinhala';-inkscape-font-specification:'Noto Serif Sinhala Bold';text-align:start;text-decoration-color:#000000;letter-spacing:0px;writing-mode:lr-tb;direction:ltr;text-anchor:start;white-space:pre;fill:#000000;fill-opacity:1;fill-rule:evenodd;stroke:none;stroke-width:6.87567;stroke-miterlimit:7.2;stroke-dashoffset:5.75998;stroke-opacity:1"
     x="68.065613"
     y="47.39249"
     id="text2-5"
     transform="scale(0.99511805,1.0049059)"><tspan
       sodipodi:role="line"
       style="font-style:normal;font-variant:normal;font-weight:900;font-stretch:normal;font-size:53.5413px;line-height:80.0503px;font-family:'Source Code Pro';-inkscape-font-specification:'Source Code Pro Heavy';text-align:center;letter-spacing:0px;text-anchor:middle;fill:#000000;fill-opacity:1;stroke-width:6.87567"
       x="68.065613"
       y="47.39249"
       id="tspan3-9">Clak</tspan></text><g
     id="g8"
     inkscape:label="SunGlasses"
     transform="matrix(1.3580959,0,0,1.3580959,-17.840526,-67.735896)"><g
       inkscape:groupmode="layer"
       id="layer2"
       inkscape:label="SUNGLASSES"
       transform="translate(10.800419,23.450675)"><path
         id="rect3"
         style="opacity:1;fill:#000000;fill-opacity:1;fill-rule:evenodd;stroke:none;stroke-width:2.667;stroke-miterlimit:7.2;stroke-dashoffset:5.75998;stroke-opacity:1"
         d="m 21.166664,67.468742 v 2.645833 h 2.645833 v -2.645833 z m 0,2.645833 h -2.645833 v 2.645833 h 2.645833 z m -2.645833,2.645833 h -2.645833 v 2.645833 2.645833 2.645833 h 2.645833 v -2.645833 h 29.104163 v 2.645833 2.645833 h 2.645833 v -2.645833 h 3.96875 v 2.645833 h 2.645833 v -2.645833 -2.645833 h 29.104163 v 2.645833 h 2.645833 v -2.645833 -2.645833 -2.645833 h -2.645833 v 2.645833 H 54.239577 v 2.645833 h -3.96875 V 75.406241 H 18.520831 Z m 70.114575,0 h 2.645833 v -2.645833 h -2.645833 z m 2.645833,-2.645833 h 2.645833 V 67.468742 H 91.281239 Z M 85.989573,80.697907 H 83.34374 v 2.645833 h 2.645833 z M 83.34374,83.34374 h -2.645833 v 2.645833 h 2.645833 z m -2.645833,2.645833 h -2.645833 v 2.645833 h 2.645833 z m -2.645833,2.645833 H 62.177076 v 2.645833 h 15.874998 z m -15.874998,0 v -2.645833 h -2.645833 v 2.645833 z M 59.531243,85.989573 V 83.34374 H 56.88541 v 2.645833 z M 47.624994,83.34374 h -2.645833 v 2.645833 h 2.645833 z m -2.645833,2.645833 h -2.645833 v 2.645833 h 2.645833 z m -2.645833,2.645833 H 26.45833 v 2.645833 h 15.874998 z m -15.874998,0 v -2.645833 h -2.645833 v 2.645833 z M 23.812497,85.989573 V 83.34374 h -2.645833 v 2.645833 z M 21.166664,83.34374 v -2.645833 h -2.645833 v 2.645833 z"
         inkscape:label="Frame" /><g
         inkscape:groupmode="layer"
         id="layer6"
         inkscape:label="Colors"><path
           id="rect7-6-4-9-8"
           style="display:inline;fill:#cb30bd;fill-opacity:1;fill-rule:evenodd;stroke:none;stroke-width:1.88585;stroke-miterlimit:7.2;stroke-dashoffset:5.75998;stroke-opacity:1"
           d="m 31.749996,78.052074 v 2.645833 h 2.645833 v -2.645833 z m 0,2.645833 h -2.645833 v 2.645833 h 2.645833 z M 29.104163,83.34374 H 26.45833 v 2.645833 h 2.645833 z m -2.645833,2.645833 h -2.645833 v 2.645833 h 2.645833 z m 41.010412,-7.937499 v 2.645833 h 2.645833 v -2.645833 z m 0,2.645833 h -2.645833 v 2.645833 h 2.645833 z m -2.645833,2.645833 h -2.645833 v 2.645833 h 2.645833 z m -2.645833,2.645833 h -2.645833 v 2.645833 h 2.645833 z"
           inkscape:label="c7 - Pink"
           transform="translate(15.874998)" /><path
           id="rect7-6-4-9"
           style="display:inline;fill:#3255b7;fill-opacity:1;fill-rule:evenodd;stroke:none;stroke-width:2.667;stroke-miterlimit:7.2;stroke-dashoffset:5.75998;stroke-opacity:1"
           d="m 31.749997,78.052074 v 2.645833 h -2.645833 v 2.645833 h -2.645833 v 2.645833 h -2.645833 v 2.645833 h 5.291666 v -2.645833 h 2.645833 V 83.34374 h 2.645833 v -2.645833 h 2.645833 v -2.645833 z m 35.718746,0 v 2.645833 H 64.82291 v 2.645833 h -2.645833 v 2.645833 h -2.645833 v 2.645833 h 5.291666 v -2.645833 h 2.645833 V 83.34374 h 2.645833 v -2.645833 h 2.645833 v -2.645833 z"
           inkscape:label="c6 - Blue"
           transform="translate(10.583331)" /><path
           id="rect7-6-4"
           style="display:inline;fill:#a8ff22;fill-opacity:1;fill-rule:evenodd;stroke:none;stroke-width:2.667;stroke-miterlimit:7.2;stroke-dashoffset:5.75998;stroke-opacity:1"
           d="m 31.75,78.052074 v 2.645833 h -2.645833 v 2.645833 h -2.645833 v 2.645833 h -2.645833 v 2.645833 h 5.291666 V 85.989573 H 31.75 V 83.34374 h 2.645833 v -2.645833 h 2.645833 v -2.645833 z m 35.718745,0 v 2.645833 h -2.645833 v 2.645833 h -2.645833 v 2.645833 h -2.645833 v 2.645833 h 5.291666 v -2.645833 h 2.645833 V 83.34374 h 2.645833 v -2.645833 h 2.645833 v -2.645833 z"
           inkscape:label="c5 - Green"
           transform="translate(5.2916623)" /><path
           id="rect7-6"
           style="display:inline;fill:#fced38;fill-opacity:1;fill-rule:evenodd;stroke:none;stroke-width:2.667;stroke-miterlimit:7.2;stroke-dashoffset:5.75998;stroke-opacity:1"
           d="m 31.749996,78.052074 v 2.645833 H 29.104163 V 83.34374 H 26.45833 v 2.645833 2.645833 h 2.645833 v -2.645833 h 2.645833 V 83.34374 h 2.645833 v -2.645833 h 2.645833 v -2.645833 z m 35.718746,0 v 2.645833 h -2.645833 v 2.645833 h -2.645833 v 2.645833 2.645833 h 2.645833 v -2.645833 h 2.645833 V 83.34374 h 2.645833 v -2.645833 h 2.645833 v -2.645833 z"
           inkscape:label="c4 - Yellow" /><path
           id="rect6"
           style="opacity:1;fill:#fb5a26;fill-opacity:1;fill-rule:evenodd;stroke:none;stroke-width:3.77171;stroke-miterlimit:7.2;stroke-dashoffset:5.75998;stroke-opacity:1"
           d="m 26.45833,78.052074 v 2.645833 h -2.645833 v 2.645833 2.645833 H 26.45833 V 83.34374 h 2.645833 v -2.645833 h 2.645833 v -2.645833 z m 35.718746,0 v 2.645833 h -2.645833 v 2.645833 2.645833 h 2.645833 V 83.34374 h 2.645833 v -2.645833 h 2.645833 v -2.645833 z"
           inkscape:label="c3 - Orange" /><path
           id="rect7-0-4-9"
           style="display:inline;fill:#fb0002;fill-opacity:1;fill-rule:evenodd;stroke:none;stroke-width:2.66699;stroke-miterlimit:7.2;stroke-dashoffset:5.75998;stroke-opacity:1"
           d="m 21.166664,78.052074 v 2.645833 2.645833 h 2.645833 v -2.645833 h 2.645833 v -2.645833 z m 35.718746,0 v 2.645833 2.645833 h 2.645833 v -2.645833 h 2.645833 v -2.645833 z"
           inkscape:label="c2 - Red" /><rect
           style="display:inline;fill:#940a32;fill-opacity:1;fill-rule:evenodd;stroke:none;stroke-width:1.88585;stroke-miterlimit:7.2;stroke-dashoffset:5.75998;stroke-opacity:1"
           id="rect7-0-4-9-3-6"
           width="2.6458299"
           height="2.6458292"
           x="18.52083"
           y="78.052071"
           inkscape:label="c1 - dark red" /></g></g></g></svg>
