<?xml version="1.0" encoding="UTF-8" standalone="no"?>
<!DOCTYPE svg PUBLIC "-//W3C//DTD SVG 1.1//EN"
 "http://www.w3.org/Graphics/SVG/1.1/DTD/svg11.dtd">
<!-- Generated by graphviz version 2.43.0 (0)
 -->
<!-- Title: classes_clak Pages: 1 -->
<svg width="1459pt" height="289pt"
 viewBox="0.00 0.00 1458.50 289.00" xmlns="http://www.w3.org/2000/svg" xmlns:xlink="http://www.w3.org/1999/xlink">
<g id="graph0" class="graph" transform="scale(1 1) rotate(0) translate(4 285)">
<title>classes_clak</title>
<polygon fill="white" stroke="transparent" points="-4,4 -4,-285 1454.5,-285 1454.5,4 -4,4"/>
<!-- clak.nodes.ConfigurationError -->
<g id="node1" class="node">
<title>clak.nodes.ConfigurationError</title>
<polygon fill="none" stroke="black" points="0,-173.1 0,-243.9 233,-243.9 233,-173.1 0,-173.1"/>
<text text-anchor="start" x="8" y="-228.7" font-family="Times,serif" font-size="14.00" fill="red">clak.nodes.ConfigurationError</text>
<polyline fill="none" stroke="black" points="0,-220.9 233,-220.9 "/>
<polyline fill="none" stroke="black" points="0,-196.1 233,-196.1 "/>
<text text-anchor="start" x="114" y="-180.9" font-family="Times,serif" font-size="14.00" fill="red"> </text>
</g>
<!-- clak.nodes.Default -->
<g id="node2" class="node">
<title>clak.nodes.Default</title>
<polygon fill="none" stroke="black" points="249,-7.1 249,-77.9 398,-77.9 398,-7.1 249,-7.1"/>
<text text-anchor="start" x="257" y="-62.7" font-family="Times,serif" font-size="14.00">clak.nodes.Default</text>
<polyline fill="none" stroke="black" points="249,-54.9 398,-54.9 "/>
<polyline fill="none" stroke="black" points="249,-30.1 398,-30.1 "/>
<text text-anchor="start" x="302.5" y="-14.9" font-family="Times,serif" font-size="14.00">repr()</text>
</g>
<!-- clak.nodes.NullType -->
<g id="node9" class="node">
<title>clak.nodes.NullType</title>
<polygon fill="none" stroke="black" points="409,-173.1 409,-243.9 570,-243.9 570,-173.1 409,-173.1"/>
<text text-anchor="start" x="417" y="-228.7" font-family="Times,serif" font-size="14.00">clak.nodes.NullType</text>
<polyline fill="none" stroke="black" points="409,-220.9 570,-220.9 "/>
<polyline fill="none" stroke="black" points="409,-196.1 570,-196.1 "/>
<text text-anchor="start" x="468.5" y="-180.9" font-family="Times,serif" font-size="14.00">repr()</text>
</g>
<!-- clak.nodes.Default&#45;&gt;clak.nodes.NullType -->
<g id="edge1" class="edge">
<title>clak.nodes.Default&#45;&gt;clak.nodes.NullType</title>
<path fill="none" stroke="black" d="M358.7,-78.28C384.65,-103.91 420.05,-138.89 447.48,-165.99"/>
<polygon fill="none" stroke="black" points="445.06,-168.51 454.63,-173.05 449.98,-163.53 445.06,-168.51"/>
</g>
<!-- clak.nodes.Failure -->
<g id="node3" class="node">
<title>clak.nodes.Failure</title>
<polygon fill="none" stroke="black" points="416.5,-7.1 416.5,-77.9 562.5,-77.9 562.5,-7.1 416.5,-7.1"/>
<text text-anchor="start" x="424.5" y="-62.7" font-family="Times,serif" font-size="14.00">clak.nodes.Failure</text>
<polyline fill="none" stroke="black" points="416.5,-54.9 562.5,-54.9 "/>
<polyline fill="none" stroke="black" points="416.5,-30.1 562.5,-30.1 "/>
<text text-anchor="start" x="468.5" y="-14.9" font-family="Times,serif" font-size="14.00">repr()</text>
</g>
<!-- clak.nodes.Failure&#45;&gt;clak.nodes.NullType -->
<g id="edge2" class="edge">
<title>clak.nodes.Failure&#45;&gt;clak.nodes.NullType</title>
<path fill="none" stroke="black" d="M489.5,-78.28C489.5,-102.93 489.5,-136.22 489.5,-162.84"/>
<polygon fill="none" stroke="black" points="486,-163.05 489.5,-173.05 493,-163.05 486,-163.05"/>
</g>
<!-- clak.nodes.Fn -->
<g id="node4" class="node">
<title>clak.nodes.Fn</title>
<polygon fill="none" stroke="black" points="1028,-0.5 1028,-84.5 1143,-84.5 1143,-0.5 1028,-0.5"/>
<text text-anchor="start" x="1036" y="-69.3" font-family="Times,serif" font-size="14.00">clak.nodes.Fn</text>
<polyline fill="none" stroke="black" points="1028,-61.5 1143,-61.5 "/>
<text text-anchor="start" x="1039" y="-46.3" font-family="Times,serif" font-size="14.00">args : tuple</text>
<text text-anchor="start" x="1039" y="-31.3" font-family="Times,serif" font-size="14.00">kwargs : dict</text>
<polyline fill="none" stroke="black" points="1028,-23.5 1143,-23.5 "/>
<text text-anchor="start" x="1083" y="-8.3" font-family="Times,serif" font-size="14.00"> </text>
</g>
<!-- clak.nodes.Node.Meta -->
<g id="node5" class="node">
<title>clak.nodes.Node.Meta</title>
<polygon fill="none" stroke="black" points="1161,-7.1 1161,-77.9 1294,-77.9 1294,-7.1 1161,-7.1"/>
<text text-anchor="start" x="1169" y="-62.7" font-family="Times,serif" font-size="14.00">clak.nodes.Meta</text>
<polyline fill="none" stroke="black" points="1161,-54.9 1294,-54.9 "/>
<polyline fill="none" stroke="black" points="1161,-30.1 1294,-30.1 "/>
<text text-anchor="start" x="1225" y="-14.9" font-family="Times,serif" font-size="14.00"> </text>
</g>
<!-- clak.nodes.MissingMetaError -->
<g id="node6" class="node">
<title>clak.nodes.MissingMetaError</title>
<polygon fill="none" stroke="black" points="2.5,-7.1 2.5,-77.9 230.5,-77.9 230.5,-7.1 2.5,-7.1"/>
<text text-anchor="start" x="10.5" y="-62.7" font-family="Times,serif" font-size="14.00" fill="red">clak.nodes.MissingMetaError</text>
<polyline fill="none" stroke="black" points="2.5,-54.9 230.5,-54.9 "/>
<polyline fill="none" stroke="black" points="2.5,-30.1 230.5,-30.1 "/>
<text text-anchor="start" x="114" y="-14.9" font-family="Times,serif" font-size="14.00" fill="red"> </text>
</g>
<!-- clak.nodes.MissingMetaError&#45;&gt;clak.nodes.ConfigurationError -->
<g id="edge3" class="edge">
<title>clak.nodes.MissingMetaError&#45;&gt;clak.nodes.ConfigurationError</title>
<path fill="none" stroke="black" d="M116.5,-78.28C116.5,-102.93 116.5,-136.22 116.5,-162.84"/>
<polygon fill="none" stroke="black" points="113,-163.05 116.5,-173.05 120,-163.05 113,-163.05"/>
</g>
<!-- clak.nodes.Node -->
<g id="node7" class="node">
<title>clak.nodes.Node</title>
<polygon fill="none" stroke="black" points="588.5,-136.5 588.5,-280.5 1450.5,-280.5 1450.5,-136.5 588.5,-136.5"/>
<text text-anchor="start" x="960.5" y="-265.3" font-family="Times,serif" font-size="14.00">clak.nodes.Node</text>
<polyline fill="none" stroke="black" points="588.5,-257.5 1450.5,-257.5 "/>
<text text-anchor="start" x="947" y="-242.3" font-family="Times,serif" font-size="14.00">name : Optional[str]</text>
<text text-anchor="start" x="947" y="-227.3" font-family="Times,serif" font-size="14.00">parent : str</text>
<polyline fill="none" stroke="black" points="588.5,-219.5 1450.5,-219.5 "/>
<text text-anchor="start" x="596.5" y="-204.3" font-family="Times,serif" font-size="14.00">get_fname(attr)</text>
<text text-anchor="start" x="596.5" y="-189.3" font-family="Times,serif" font-size="14.00">get_hierarchy()</text>
<text text-anchor="start" x="596.5" y="-174.3" font-family="Times,serif" font-size="14.00">get_name(attr, default)</text>
<text text-anchor="start" x="596.5" y="-159.3" font-family="Times,serif" font-size="14.00">query_cfg_inst(name, override, default, report, raise_on_undeclared)</text>
<text text-anchor="start" x="596.5" y="-144.3" font-family="Times,serif" font-size="14.00">query_cfg_parents(name: str, default: Any, include_self: bool, report: bool): Union[Any, Tuple[Any, Union[str, List[str]]]]</text>
</g>
<!-- clak.nodes.NotSet -->
<g id="node8" class="node">
<title>clak.nodes.NotSet</title>
<polygon fill="none" stroke="black" points="580.5,-7.1 580.5,-77.9 726.5,-77.9 726.5,-7.1 580.5,-7.1"/>
<text text-anchor="start" x="588.5" y="-62.7" font-family="Times,serif" font-size="14.00">clak.nodes.NotSet</text>
<polyline fill="none" stroke="black" points="580.5,-54.9 726.5,-54.9 "/>
<polyline fill="none" stroke="black" points="580.5,-30.1 726.5,-30.1 "/>
<text text-anchor="start" x="632.5" y="-14.9" font-family="Times,serif" font-size="14.00">repr()</text>
</g>
<!-- clak.nodes.NotSet&#45;&gt;clak.nodes.NullType -->
<g id="edge4" class="edge">
<title>clak.nodes.NotSet&#45;&gt;clak.nodes.NullType</title>
<path fill="none" stroke="black" d="M618.72,-78.28C593.19,-103.81 558.41,-138.59 531.36,-165.64"/>
<polygon fill="none" stroke="black" points="528.54,-163.51 523.95,-173.05 533.49,-168.46 528.54,-163.51"/>
</g>
<!-- clak.nodes.UnSetArg -->
<g id="node10" class="node">
<title>clak.nodes.UnSetArg</title>
<polygon fill="none" stroke="black" points="843,-7.1 843,-77.9 1010,-77.9 1010,-7.1 843,-7.1"/>
<text text-anchor="start" x="851" y="-62.7" font-family="Times,serif" font-size="14.00">clak.nodes.UnSetArg</text>
<polyline fill="none" stroke="black" points="843,-54.9 1010,-54.9 "/>
<polyline fill="none" stroke="black" points="843,-30.1 1010,-30.1 "/>
<text text-anchor="start" x="905.5" y="-14.9" font-family="Times,serif" font-size="14.00">repr()</text>
</g>
<!-- clak.nodes.UnSetArg&#45;&gt;clak.nodes.Node -->
<g id="edge6" class="edge">
<title>clak.nodes.UnSetArg&#45;&gt;clak.nodes.Node</title>
<path fill="none" stroke="black" d="M946.22,-78.28C954.1,-92.16 963.52,-108.79 972.95,-125.41"/>
<polygon fill="black" stroke="black" points="973.21,-125.87 979.65,-129.12 979.13,-136.31 972.69,-133.07 973.21,-125.87"/>
<text text-anchor="middle" x="987.5" y="-106.8" font-family="Times,serif" font-size="14.00" fill="green">name</text>
</g>
<!-- clak.nodes.UnSetArg&#45;&gt;clak.nodes.NullType -->
<g id="edge5" class="edge">
<title>clak.nodes.UnSetArg&#45;&gt;clak.nodes.NullType</title>
<path fill="none" stroke="black" d="M842.76,-61.67C755.53,-81.34 625.31,-112.96 579.5,-136 563.55,-144.02 547.76,-155.16 533.97,-166.27"/>
<polygon fill="none" stroke="black" points="531.57,-163.71 526.09,-172.78 536.03,-169.11 531.57,-163.71"/>
</g>
</g>
</svg>
