<?xml version="1.0" encoding="UTF-8" standalone="no"?>
<!DOCTYPE svg PUBLIC "-//W3C//DTD SVG 1.1//EN"
 "http://www.w3.org/Graphics/SVG/1.1/DTD/svg11.dtd">
<!-- Generated by graphviz version 12.1.2 (0)
 -->
<!-- Title: classes_clak Pages: 1 -->
<svg width="3490pt" height="587pt"
 viewBox="0.00 0.00 3489.62 587.25" xmlns="http://www.w3.org/2000/svg" xmlns:xlink="http://www.w3.org/1999/xlink">
<g id="graph0" class="graph" transform="scale(1 1) rotate(0) translate(4 583.25)">
<title>classes_clak</title>
<polygon fill="white" stroke="none" points="-4,4 -4,-583.25 3485.62,-583.25 3485.62,4 -4,4"/>
<!-- clak.ORIG_merge_parsers.ArgParseItem -->
<g id="node1" class="node">
<title>clak.ORIG_merge_parsers.ArgParseItem</title>
<polygon fill="none" stroke="black" points="0,-259.88 0,-335.62 303.25,-335.62 303.25,-259.88 0,-259.88"/>
<text text-anchor="start" x="8" y="-318.32" font-family="Times,serif" font-size="14.00">clak.ORIG_merge_parsers.ArgParseItem</text>
<polyline fill="none" stroke="black" points="0,-310.38 303.25,-310.38"/>
<text text-anchor="start" x="111.5" y="-293.07" font-family="Times,serif" font-size="14.00">destination</text>
<polyline fill="none" stroke="black" points="0,-285.12 303.25,-285.12"/>
<text text-anchor="start" x="68.38" y="-267.82" font-family="Times,serif" font-size="14.00">build_params(dest: str)</text>
</g>
<!-- clak.ORIG_merge_parsers.Fn -->
<g id="node5" class="node">
<title>clak.ORIG_merge_parsers.Fn</title>
<polygon fill="none" stroke="black" points="39.75,-451.25 39.75,-544.25 263.5,-544.25 263.5,-451.25 39.75,-451.25"/>
<text text-anchor="start" x="47.75" y="-526.95" font-family="Times,serif" font-size="14.00">clak.ORIG_merge_parsers.Fn</text>
<polyline fill="none" stroke="black" points="39.75,-519 263.5,-519"/>
<text text-anchor="start" x="105.5" y="-501.7" font-family="Times,serif" font-size="14.00">args : tuple</text>
<text text-anchor="start" x="105.5" y="-484.45" font-family="Times,serif" font-size="14.00">kwargs : dict</text>
<polyline fill="none" stroke="black" points="39.75,-476.5 263.5,-476.5"/>
<text text-anchor="start" x="149.38" y="-459.2" font-family="Times,serif" font-size="14.00"> </text>
</g>
<!-- clak.ORIG_merge_parsers.ArgParseItem&#45;&gt;clak.ORIG_merge_parsers.Fn -->
<g id="edge1" class="edge">
<title>clak.ORIG_merge_parsers.ArgParseItem&#45;&gt;clak.ORIG_merge_parsers.Fn</title>
<path fill="none" stroke="black" d="M151.62,-335.99C151.62,-365.15 151.62,-406.22 151.62,-439.54"/>
<polygon fill="none" stroke="black" points="148.13,-439.46 151.63,-449.46 155.13,-439.46 148.13,-439.46"/>
</g>
<!-- clak.ORIG_merge_parsers.Argument -->
<g id="node2" class="node">
<title>clak.ORIG_merge_parsers.Argument</title>
<polygon fill="none" stroke="black" points="1142.5,-56.25 1142.5,-106.75 1418.75,-106.75 1418.75,-56.25 1142.5,-56.25"/>
<text text-anchor="start" x="1150.5" y="-89.45" font-family="Times,serif" font-size="14.00">clak.ORIG_merge_parsers.Argument</text>
<polyline fill="none" stroke="black" points="1142.5,-81.5 1418.75,-81.5"/>
<polyline fill="none" stroke="black" points="1142.5,-81.5 1418.75,-81.5"/>
<text text-anchor="start" x="1200" y="-64.2" font-family="Times,serif" font-size="14.00">create_arg(key, config)</text>
</g>
<!-- clak.ORIG_merge_parsers.Argument&#45;&gt;clak.ORIG_merge_parsers.ArgParseItem -->
<g id="edge2" class="edge">
<title>clak.ORIG_merge_parsers.Argument&#45;&gt;clak.ORIG_merge_parsers.ArgParseItem</title>
<path fill="none" stroke="black" d="M1142.06,-106.12C1040.28,-123.08 898.57,-145.87 773.62,-163 638.43,-181.54 604.18,-182.6 468.62,-198.25 399.29,-206.26 379.52,-196.34 312.62,-216.25 282.21,-225.3 250.6,-239.83 223.52,-254.08"/>
<polygon fill="none" stroke="black" points="221.88,-250.99 214.71,-258.8 225.18,-257.16 221.88,-250.99"/>
</g>
<!-- clak.ORIG_merge_parsers.MainConfig -->
<g id="node6" class="node">
<title>clak.ORIG_merge_parsers.MainConfig</title>
<polygon fill="none" stroke="black" points="1540.88,-234 1540.88,-361.5 1828.38,-361.5 1828.38,-234 1540.88,-234"/>
<text text-anchor="start" x="1548.88" y="-344.2" font-family="Times,serif" font-size="14.00">clak.ORIG_merge_parsers.MainConfig</text>
<polyline fill="none" stroke="black" points="1540.88,-336.25 1828.38,-336.25"/>
<text text-anchor="start" x="1608.88" y="-318.95" font-family="Times,serif" font-size="14.00">arguments_dict : dict</text>
<text text-anchor="start" x="1608.88" y="-301.7" font-family="Times,serif" font-size="14.00">children : dict</text>
<text text-anchor="start" x="1608.88" y="-284.45" font-family="Times,serif" font-size="14.00">global_custom</text>
<text text-anchor="start" x="1608.88" y="-267.2" font-family="Times,serif" font-size="14.00">global_custom2</text>
<polyline fill="none" stroke="black" points="1540.88,-259.25 1828.38,-259.25"/>
<text text-anchor="start" x="1682.38" y="-241.95" font-family="Times,serif" font-size="14.00"> </text>
</g>
<!-- clak.ORIG_merge_parsers.Argument&#45;&gt;clak.ORIG_merge_parsers.MainConfig -->
<g id="edge12" class="edge">
<title>clak.ORIG_merge_parsers.Argument&#45;&gt;clak.ORIG_merge_parsers.MainConfig</title>
<path fill="none" stroke="black" d="M1326.97,-107.08C1382.08,-136.31 1476.43,-186.34 1554.38,-227.68"/>
<polygon fill="black" stroke="black" points="1554.36,-227.67 1561.54,-226.95 1564.96,-233.29 1557.79,-234.01 1554.36,-227.67"/>
<text text-anchor="middle" x="1545.74" y="-184.95" font-family="Times,serif" font-size="14.00" fill="green">global_custom</text>
</g>
<!-- clak.ORIG_merge_parsers.Argument&#45;&gt;clak.ORIG_merge_parsers.MainConfig -->
<g id="edge13" class="edge">
<title>clak.ORIG_merge_parsers.Argument&#45;&gt;clak.ORIG_merge_parsers.MainConfig</title>
<path fill="none" stroke="black" d="M1323.32,-107.15C1357.26,-125.58 1406.51,-149.77 1452.62,-163 1516.32,-181.27 1543.52,-147.39 1600.62,-181 1618.17,-191.33 1633.09,-206.91 1645.27,-223.32"/>
<polygon fill="black" stroke="black" points="1645.08,-223.06 1651.8,-225.67 1651.98,-232.88 1645.26,-230.27 1645.08,-223.06"/>
<text text-anchor="middle" x="1677.62" y="-184.95" font-family="Times,serif" font-size="14.00" fill="green">global_custom2</text>
</g>
<!-- clak.ORIG_merge_parsers.Process -->
<g id="node7" class="node">
<title>clak.ORIG_merge_parsers.Process</title>
<polygon fill="none" stroke="black" points="321.38,-216.75 321.38,-378.75 581.88,-378.75 581.88,-216.75 321.38,-216.75"/>
<text text-anchor="start" x="329.38" y="-361.45" font-family="Times,serif" font-size="14.00">clak.ORIG_merge_parsers.Process</text>
<polyline fill="none" stroke="black" points="321.38,-353.5 581.88,-353.5"/>
<text text-anchor="start" x="375.88" y="-336.2" font-family="Times,serif" font-size="14.00">arguments_dict : dict</text>
<text text-anchor="start" x="375.88" y="-318.95" font-family="Times,serif" font-size="14.00">children : dict</text>
<text text-anchor="start" x="375.88" y="-301.7" font-family="Times,serif" font-size="14.00">filter_field</text>
<text text-anchor="start" x="375.88" y="-284.45" font-family="Times,serif" font-size="14.00">kill2</text>
<text text-anchor="start" x="375.88" y="-267.2" font-family="Times,serif" font-size="14.00">show2</text>
<text text-anchor="start" x="375.88" y="-249.95" font-family="Times,serif" font-size="14.00">sort_field</text>
<polyline fill="none" stroke="black" points="321.38,-242 581.88,-242"/>
<text text-anchor="start" x="449.38" y="-224.7" font-family="Times,serif" font-size="14.00"> </text>
</g>
<!-- clak.ORIG_merge_parsers.Argument&#45;&gt;clak.ORIG_merge_parsers.Process -->
<g id="edge14" class="edge">
<title>clak.ORIG_merge_parsers.Argument&#45;&gt;clak.ORIG_merge_parsers.Process</title>
<path fill="none" stroke="black" d="M1151.75,-107.24C972.28,-141.74 662.23,-201.46 594.77,-216.76"/>
<polygon fill="black" stroke="black" points="594.64,-216.79 589.81,-222.15 583.01,-219.74 587.84,-214.39 594.64,-216.79"/>
<text text-anchor="middle" x="795.56" y="-184.95" font-family="Times,serif" font-size="14.00" fill="green">sort_field</text>
</g>
<!-- clak.ORIG_merge_parsers.Argument&#45;&gt;clak.ORIG_merge_parsers.Process -->
<g id="edge15" class="edge">
<title>clak.ORIG_merge_parsers.Argument&#45;&gt;clak.ORIG_merge_parsers.Process</title>
<path fill="none" stroke="black" d="M1202.63,-107.18C1113.95,-134.17 964.39,-176.49 832.62,-198.25 730.69,-215.09 696.87,-186.99 594.82,-215.64"/>
<polygon fill="black" stroke="black" points="594.74,-215.66 590.12,-221.2 583.23,-219.06 587.86,-213.52 594.74,-215.66"/>
<text text-anchor="middle" x="956.29" y="-184.95" font-family="Times,serif" font-size="14.00" fill="green">filter_field</text>
</g>
<!-- clak.ORIG_merge_parsers.ProcessKillAll -->
<g id="node9" class="node">
<title>clak.ORIG_merge_parsers.ProcessKillAll</title>
<polygon fill="none" stroke="black" points="1220,-242.62 1220,-352.88 1523.25,-352.88 1523.25,-242.62 1220,-242.62"/>
<text text-anchor="start" x="1228" y="-335.57" font-family="Times,serif" font-size="14.00">clak.ORIG_merge_parsers.ProcessKillAll</text>
<polyline fill="none" stroke="black" points="1220,-327.62 1523.25,-327.62"/>
<text text-anchor="start" x="1295.88" y="-310.32" font-family="Times,serif" font-size="14.00">arguments_dict : dict</text>
<text text-anchor="start" x="1295.88" y="-293.07" font-family="Times,serif" font-size="14.00">kill_name</text>
<text text-anchor="start" x="1295.88" y="-275.82" font-family="Times,serif" font-size="14.00">kill_pid</text>
<polyline fill="none" stroke="black" points="1220,-267.88 1523.25,-267.88"/>
<text text-anchor="start" x="1369.38" y="-250.57" font-family="Times,serif" font-size="14.00"> </text>
</g>
<!-- clak.ORIG_merge_parsers.Argument&#45;&gt;clak.ORIG_merge_parsers.ProcessKillAll -->
<g id="edge16" class="edge">
<title>clak.ORIG_merge_parsers.Argument&#45;&gt;clak.ORIG_merge_parsers.ProcessKillAll</title>
<path fill="none" stroke="black" d="M1302.3,-107.05C1317.84,-125.98 1338.01,-153.49 1349.62,-181 1356.03,-196.17 1360.58,-213.24 1363.81,-229.52"/>
<polygon fill="black" stroke="black" points="1363.84,-229.66 1368.84,-234.85 1365.97,-241.46 1360.97,-236.27 1363.84,-229.66"/>
<text text-anchor="middle" x="1380.69" y="-184.95" font-family="Times,serif" font-size="14.00" fill="green">kill_pid</text>
</g>
<!-- clak.ORIG_merge_parsers.Argument&#45;&gt;clak.ORIG_merge_parsers.ProcessKillAll -->
<g id="edge17" class="edge">
<title>clak.ORIG_merge_parsers.Argument&#45;&gt;clak.ORIG_merge_parsers.ProcessKillAll</title>
<path fill="none" stroke="black" d="M1274.72,-106.98C1270.11,-131.1 1266.28,-168.57 1278.12,-198.25 1282.96,-210.36 1290.07,-221.84 1298.25,-232.39"/>
<polygon fill="black" stroke="black" points="1298.15,-232.28 1305.06,-234.35 1305.8,-241.52 1298.9,-239.45 1298.15,-232.28"/>
<text text-anchor="middle" x="1311.88" y="-184.95" font-family="Times,serif" font-size="14.00" fill="green">kill_name</text>
</g>
<!-- clak.ORIG_merge_parsers.ProcessKillOne -->
<g id="node10" class="node">
<title>clak.ORIG_merge_parsers.ProcessKillOne</title>
<polygon fill="none" stroke="black" points="1846.12,-242.62 1846.12,-352.88 2159.12,-352.88 2159.12,-242.62 1846.12,-242.62"/>
<text text-anchor="start" x="1854.12" y="-335.57" font-family="Times,serif" font-size="14.00">clak.ORIG_merge_parsers.ProcessKillOne</text>
<polyline fill="none" stroke="black" points="1846.12,-327.62 2159.12,-327.62"/>
<text text-anchor="start" x="1926.88" y="-310.32" font-family="Times,serif" font-size="14.00">arguments_dict : dict</text>
<text text-anchor="start" x="1926.88" y="-293.07" font-family="Times,serif" font-size="14.00">kill_name</text>
<text text-anchor="start" x="1926.88" y="-275.82" font-family="Times,serif" font-size="14.00">kill_pid</text>
<polyline fill="none" stroke="black" points="1846.12,-267.88 2159.12,-267.88"/>
<text text-anchor="start" x="2000.38" y="-250.57" font-family="Times,serif" font-size="14.00"> </text>
</g>
<!-- clak.ORIG_merge_parsers.Argument&#45;&gt;clak.ORIG_merge_parsers.ProcessKillOne -->
<g id="edge18" class="edge">
<title>clak.ORIG_merge_parsers.Argument&#45;&gt;clak.ORIG_merge_parsers.ProcessKillOne</title>
<path fill="none" stroke="black" d="M1321.74,-107.13C1355.59,-126.06 1405.51,-150.94 1452.62,-163 1575.15,-194.35 1612.66,-155.93 1736.62,-181 1783.23,-190.42 1793.74,-197.96 1837.62,-216.25 1852.75,-222.55 1868.45,-229.57 1883.89,-236.76"/>
<polygon fill="black" stroke="black" points="1883.95,-236.79 1891.08,-235.72 1894.81,-241.9 1887.68,-242.96 1883.95,-236.79"/>
<text text-anchor="middle" x="1820.34" y="-184.95" font-family="Times,serif" font-size="14.00" fill="green">kill_pid</text>
</g>
<!-- clak.ORIG_merge_parsers.Argument&#45;&gt;clak.ORIG_merge_parsers.ProcessKillOne -->
<g id="edge19" class="edge">
<title>clak.ORIG_merge_parsers.Argument&#45;&gt;clak.ORIG_merge_parsers.ProcessKillOne</title>
<path fill="none" stroke="black" d="M1321.34,-107.16C1355.16,-126.25 1405.25,-151.33 1452.62,-163 1538.37,-184.12 1766.56,-151.01 1849.62,-181 1881.57,-192.53 1912.34,-213.24 1937.8,-233.99"/>
<polygon fill="black" stroke="black" points="1937.76,-233.95 1944.93,-234.73 1946.96,-241.65 1939.79,-240.87 1937.76,-233.95"/>
<text text-anchor="middle" x="1916.44" y="-184.95" font-family="Times,serif" font-size="14.00" fill="green">kill_name</text>
</g>
<!-- clak.ORIG_merge_parsers.ProcessShow -->
<g id="node11" class="node">
<title>clak.ORIG_merge_parsers.ProcessShow</title>
<polygon fill="none" stroke="black" points="902.88,-242.62 902.88,-352.88 1202.38,-352.88 1202.38,-242.62 902.88,-242.62"/>
<text text-anchor="start" x="910.88" y="-335.57" font-family="Times,serif" font-size="14.00">clak.ORIG_merge_parsers.ProcessShow</text>
<polyline fill="none" stroke="black" points="902.88,-327.62 1202.38,-327.62"/>
<text text-anchor="start" x="976.88" y="-310.32" font-family="Times,serif" font-size="14.00">arguments_dict : dict</text>
<text text-anchor="start" x="976.88" y="-293.07" font-family="Times,serif" font-size="14.00">target_name</text>
<text text-anchor="start" x="976.88" y="-275.82" font-family="Times,serif" font-size="14.00">target_pid</text>
<polyline fill="none" stroke="black" points="902.88,-267.88 1202.38,-267.88"/>
<text text-anchor="start" x="1050.38" y="-250.57" font-family="Times,serif" font-size="14.00"> </text>
</g>
<!-- clak.ORIG_merge_parsers.Argument&#45;&gt;clak.ORIG_merge_parsers.ProcessShow -->
<g id="edge20" class="edge">
<title>clak.ORIG_merge_parsers.Argument&#45;&gt;clak.ORIG_merge_parsers.ProcessShow</title>
<path fill="none" stroke="black" d="M1170.9,-107.23C1130.64,-121.93 1088.7,-145.02 1063.12,-181 1053.2,-194.96 1048.71,-212.38 1047.13,-229.44"/>
<polygon fill="black" stroke="black" points="1047.12,-229.47 1050.8,-235.67 1046.49,-241.45 1042.81,-235.25 1047.12,-229.47"/>
<text text-anchor="middle" x="1099.88" y="-184.95" font-family="Times,serif" font-size="14.00" fill="green">target_pid</text>
</g>
<!-- clak.ORIG_merge_parsers.Argument&#45;&gt;clak.ORIG_merge_parsers.ProcessShow -->
<g id="edge21" class="edge">
<title>clak.ORIG_merge_parsers.Argument&#45;&gt;clak.ORIG_merge_parsers.ProcessShow</title>
<path fill="none" stroke="black" d="M1254.47,-107.08C1221.93,-137.66 1165.15,-191.01 1120.09,-233.35"/>
<polygon fill="black" stroke="black" points="1120.07,-233.37 1118.43,-240.4 1111.32,-241.59 1112.96,-234.57 1120.07,-233.37"/>
<text text-anchor="middle" x="1218.46" y="-184.95" font-family="Times,serif" font-size="14.00" fill="green">target_name</text>
</g>
<!-- clak.ORIG_merge_parsers.ArgumentParserPlus -->
<g id="node3" class="node">
<title>clak.ORIG_merge_parsers.ArgumentParserPlus</title>
<polygon fill="none" stroke="black" points="1034.88,-416.75 1034.88,-578.75 1388.38,-578.75 1388.38,-416.75 1034.88,-416.75"/>
<text text-anchor="start" x="1042.88" y="-561.45" font-family="Times,serif" font-size="14.00">clak.ORIG_merge_parsers.ArgumentParserPlus</text>
<polyline fill="none" stroke="black" points="1034.88,-553.5 1388.38,-553.5"/>
<text text-anchor="start" x="1067.62" y="-536.2" font-family="Times,serif" font-size="14.00">arguments_dict : dict[str, ArgParseItem]</text>
<text text-anchor="start" x="1067.62" y="-518.95" font-family="Times,serif" font-size="14.00">children : dict</text>
<text text-anchor="start" x="1067.62" y="-501.7" font-family="Times,serif" font-size="14.00">parser : ArgumentParser</text>
<text text-anchor="start" x="1067.62" y="-484.45" font-family="Times,serif" font-size="14.00">subparsers</text>
<polyline fill="none" stroke="black" points="1034.88,-476.5 1388.38,-476.5"/>
<text text-anchor="start" x="1161.75" y="-459.2" font-family="Times,serif" font-size="14.00">init_children()</text>
<text text-anchor="start" x="1161.75" y="-441.95" font-family="Times,serif" font-size="14.00">init_options()</text>
<text text-anchor="start" x="1161.75" y="-424.7" font-family="Times,serif" font-size="14.00">parse_args()</text>
</g>
<!-- clak.ORIG_merge_parsers.Command -->
<g id="node4" class="node">
<title>clak.ORIG_merge_parsers.Command</title>
<polygon fill="none" stroke="black" points="0.38,-35 0.38,-128 764.88,-128 764.88,-35 0.38,-35"/>
<text text-anchor="start" x="252.12" y="-110.7" font-family="Times,serif" font-size="14.00">clak.ORIG_merge_parsers.Command</text>
<polyline fill="none" stroke="black" points="0.38,-102.75 764.88,-102.75"/>
<text text-anchor="start" x="372.88" y="-85.45" font-family="Times,serif" font-size="14.00">cls</text>
<polyline fill="none" stroke="black" points="0.38,-77.5 764.88,-77.5"/>
<text text-anchor="start" x="8.38" y="-60.2" font-family="Times,serif" font-size="14.00">add_parser(key: str, other_parser: &#39;ArgumentParserPlus&#39;, parent_config: &#39;ArgumentParserPlus&#39;, help: str)</text>
<text text-anchor="start" x="8.38" y="-42.95" font-family="Times,serif" font-size="14.00">create_arg(key, config)</text>
</g>
<!-- clak.ORIG_merge_parsers.Command&#45;&gt;clak.ORIG_merge_parsers.ArgParseItem -->
<g id="edge3" class="edge">
<title>clak.ORIG_merge_parsers.Command&#45;&gt;clak.ORIG_merge_parsers.ArgParseItem</title>
<path fill="none" stroke="black" d="M333.07,-128.46C293.71,-164.97 238.99,-215.72 199.96,-251.92"/>
<polygon fill="none" stroke="black" points="197.94,-249.02 192.99,-258.39 202.7,-254.15 197.94,-249.02"/>
</g>
<!-- clak.ORIG_merge_parsers.Command&#45;&gt;clak.ORIG_merge_parsers.Process -->
<g id="edge22" class="edge">
<title>clak.ORIG_merge_parsers.Command&#45;&gt;clak.ORIG_merge_parsers.Process</title>
<path fill="none" stroke="black" d="M407.39,-128.09C415.43,-144.4 423.79,-163.17 429.62,-181 432.02,-188.31 434.19,-195.97 436.14,-203.72"/>
<polygon fill="black" stroke="black" points="436.16,-203.81 441.43,-208.73 438.92,-215.49 433.65,-210.57 436.16,-203.81"/>
<text text-anchor="middle" x="449.58" y="-184.95" font-family="Times,serif" font-size="14.00" fill="green">kill2</text>
</g>
<!-- clak.ORIG_merge_parsers.Command&#45;&gt;clak.ORIG_merge_parsers.Process -->
<g id="edge23" class="edge">
<title>clak.ORIG_merge_parsers.Command&#45;&gt;clak.ORIG_merge_parsers.Process</title>
<path fill="none" stroke="black" d="M374.61,-128.32C372.54,-150.01 372.62,-175.98 379.88,-198.25 380.56,-200.36 381.31,-202.46 382.12,-204.55"/>
<polygon fill="black" stroke="black" points="382.14,-204.59 388.22,-208.47 386.97,-215.57 380.9,-211.69 382.14,-204.59"/>
<text text-anchor="middle" x="402.75" y="-184.95" font-family="Times,serif" font-size="14.00" fill="green">show2</text>
</g>
<!-- clak.ORIG_merge_parsers.MainConfig&#45;&gt;clak.ORIG_merge_parsers.ArgumentParserPlus -->
<g id="edge4" class="edge">
<title>clak.ORIG_merge_parsers.MainConfig&#45;&gt;clak.ORIG_merge_parsers.ArgumentParserPlus</title>
<path fill="none" stroke="black" d="M1569.25,-361.94C1556.99,-368.02 1544.63,-373.9 1532.62,-379.25 1490.09,-398.19 1443.48,-416.56 1399.28,-432.93"/>
<polygon fill="none" stroke="black" points="1398.29,-429.56 1390.12,-436.3 1400.71,-436.13 1398.29,-429.56"/>
</g>
<!-- clak.ORIG_merge_parsers.Process&#45;&gt;clak.ORIG_merge_parsers.ArgumentParserPlus -->
<g id="edge5" class="edge">
<title>clak.ORIG_merge_parsers.Process&#45;&gt;clak.ORIG_merge_parsers.ArgumentParserPlus</title>
<path fill="none" stroke="black" d="M582.13,-375.55C585.3,-376.85 588.47,-378.08 591.62,-379.25 731.62,-431.08 898.24,-461.02 1023.48,-477.7"/>
<polygon fill="none" stroke="black" points="1022.83,-481.14 1033.2,-478.97 1023.74,-474.2 1022.83,-481.14"/>
</g>
<!-- clak.ORIG_merge_parsers.ProcessKill -->
<g id="node8" class="node">
<title>clak.ORIG_merge_parsers.ProcessKill</title>
<polygon fill="none" stroke="black" points="600.38,-251.25 600.38,-344.25 884.88,-344.25 884.88,-251.25 600.38,-251.25"/>
<text text-anchor="start" x="608.38" y="-326.95" font-family="Times,serif" font-size="14.00">clak.ORIG_merge_parsers.ProcessKill</text>
<polyline fill="none" stroke="black" points="600.38,-319 884.88,-319"/>
<text text-anchor="start" x="666.88" y="-301.7" font-family="Times,serif" font-size="14.00">arguments_dict : dict</text>
<text text-anchor="start" x="666.88" y="-284.45" font-family="Times,serif" font-size="14.00">children : dict</text>
<polyline fill="none" stroke="black" points="600.38,-276.5 884.88,-276.5"/>
<text text-anchor="start" x="740.38" y="-259.2" font-family="Times,serif" font-size="14.00"> </text>
</g>
<!-- clak.ORIG_merge_parsers.ProcessKill&#45;&gt;clak.ORIG_merge_parsers.ArgumentParserPlus -->
<g id="edge6" class="edge">
<title>clak.ORIG_merge_parsers.ProcessKill&#45;&gt;clak.ORIG_merge_parsers.ArgumentParserPlus</title>
<path fill="none" stroke="black" d="M823.9,-344.68C846.2,-356.56 870.59,-368.91 893.62,-379.25 935.17,-397.9 980.65,-416 1023.89,-432.2"/>
<polygon fill="none" stroke="black" points="1022.53,-435.42 1033.12,-435.63 1024.97,-428.86 1022.53,-435.42"/>
</g>
<!-- clak.ORIG_merge_parsers.ProcessKillAll&#45;&gt;clak.ORIG_merge_parsers.ArgumentParserPlus -->
<g id="edge7" class="edge">
<title>clak.ORIG_merge_parsers.ProcessKillAll&#45;&gt;clak.ORIG_merge_parsers.ArgumentParserPlus</title>
<path fill="none" stroke="black" d="M1327.69,-353.12C1314.04,-370.02 1298.61,-389.11 1283.56,-407.73"/>
<polygon fill="none" stroke="black" points="1280.96,-405.38 1277.4,-415.35 1286.41,-409.78 1280.96,-405.38"/>
</g>
<!-- clak.ORIG_merge_parsers.ProcessKillOne&#45;&gt;clak.ORIG_merge_parsers.ArgumentParserPlus -->
<g id="edge8" class="edge">
<title>clak.ORIG_merge_parsers.ProcessKillOne&#45;&gt;clak.ORIG_merge_parsers.ArgumentParserPlus</title>
<path fill="none" stroke="black" d="M1901.88,-353.17C1881.05,-362.91 1858.96,-372.19 1837.62,-379.25 1694.46,-426.65 1526.16,-456.89 1400.15,-474.81"/>
<polygon fill="none" stroke="black" points="1399.77,-471.33 1390.35,-476.19 1400.74,-478.26 1399.77,-471.33"/>
</g>
<!-- clak.ORIG_merge_parsers.ProcessShow&#45;&gt;clak.ORIG_merge_parsers.ArgumentParserPlus -->
<g id="edge9" class="edge">
<title>clak.ORIG_merge_parsers.ProcessShow&#45;&gt;clak.ORIG_merge_parsers.ArgumentParserPlus</title>
<path fill="none" stroke="black" d="M1096.28,-353.12C1109.85,-370.02 1125.19,-389.11 1140.14,-407.73"/>
<polygon fill="none" stroke="black" points="1137.27,-409.74 1146.26,-415.35 1142.73,-405.36 1137.27,-409.74"/>
</g>
<!-- clak.ORIG_merge_parsers.RecursiveHelpFormatter -->
<g id="node12" class="node">
<title>clak.ORIG_merge_parsers.RecursiveHelpFormatter</title>
<polygon fill="none" stroke="black" points="1461.62,-56.25 1461.62,-106.75 1843.62,-106.75 1843.62,-56.25 1461.62,-56.25"/>
<text text-anchor="start" x="1469.62" y="-89.45" font-family="Times,serif" font-size="14.00">clak.ORIG_merge_parsers.RecursiveHelpFormatter</text>
<polyline fill="none" stroke="black" points="1461.62,-81.5 1843.62,-81.5"/>
<polyline fill="none" stroke="black" points="1461.62,-81.5 1843.62,-81.5"/>
<text text-anchor="start" x="1650.38" y="-64.2" font-family="Times,serif" font-size="14.00"> </text>
</g>
<!-- clak.fields.ArgParseItem -->
<g id="node13" class="node">
<title>clak.fields.ArgParseItem</title>
<polygon fill="none" stroke="black" points="2267.25,-242.62 2267.25,-352.88 2458,-352.88 2458,-242.62 2267.25,-242.62"/>
<text text-anchor="start" x="2275.25" y="-335.57" font-family="Times,serif" font-size="14.00">clak.fields.ArgParseItem</text>
<polyline fill="none" stroke="black" points="2267.25,-327.62 2458,-327.62"/>
<text text-anchor="start" x="2316.5" y="-310.32" font-family="Times,serif" font-size="14.00">args : tuple</text>
<text text-anchor="start" x="2316.5" y="-293.07" font-family="Times,serif" font-size="14.00">destination</text>
<text text-anchor="start" x="2316.5" y="-275.82" font-family="Times,serif" font-size="14.00">kwargs : dict</text>
<polyline fill="none" stroke="black" points="2267.25,-267.88 2458,-267.88"/>
<text text-anchor="start" x="2279.38" y="-250.57" font-family="Times,serif" font-size="14.00">build_params(dest: str)</text>
</g>
<!-- clak.fields.Argument -->
<g id="node14" class="node">
<title>clak.fields.Argument</title>
<polygon fill="none" stroke="black" points="1874,-56.25 1874,-106.75 2051.25,-106.75 2051.25,-56.25 1874,-56.25"/>
<text text-anchor="start" x="1888.75" y="-89.45" font-family="Times,serif" font-size="14.00">clak.fields.Argument</text>
<polyline fill="none" stroke="black" points="1874,-81.5 2051.25,-81.5"/>
<polyline fill="none" stroke="black" points="1874,-81.5 2051.25,-81.5"/>
<text text-anchor="start" x="1882" y="-64.2" font-family="Times,serif" font-size="14.00">create_arg(key, config)</text>
</g>
<!-- clak.fields.Argument&#45;&gt;clak.fields.ArgParseItem -->
<g id="edge10" class="edge">
<title>clak.fields.Argument&#45;&gt;clak.fields.ArgParseItem</title>
<path fill="none" stroke="black" d="M1988.59,-107.14C2007.53,-124.27 2034.38,-146.83 2060.62,-163 2095.17,-184.29 2183.83,-222.92 2256.21,-253.21"/>
<polygon fill="none" stroke="black" points="2254.79,-256.41 2265.37,-257.04 2257.49,-249.95 2254.79,-256.41"/>
</g>
<!-- clak.fields.Command -->
<g id="node15" class="node">
<title>clak.fields.Command</title>
<polygon fill="none" stroke="black" points="2069.38,-35 2069.38,-128 2833.88,-128 2833.88,-35 2069.38,-35"/>
<text text-anchor="start" x="2377.38" y="-110.7" font-family="Times,serif" font-size="14.00">clak.fields.Command</text>
<polyline fill="none" stroke="black" points="2069.38,-102.75 2833.88,-102.75"/>
<text text-anchor="start" x="2441.88" y="-85.45" font-family="Times,serif" font-size="14.00">cls</text>
<polyline fill="none" stroke="black" points="2069.38,-77.5 2833.88,-77.5"/>
<text text-anchor="start" x="2077.38" y="-60.2" font-family="Times,serif" font-size="14.00">add_parser(key: str, other_parser: &#39;ArgumentParserPlus&#39;, parent_config: &#39;ArgumentParserPlus&#39;, help: str)</text>
<text text-anchor="start" x="2077.38" y="-42.95" font-family="Times,serif" font-size="14.00">create_arg(key, config)</text>
</g>
<!-- clak.fields.Command&#45;&gt;clak.fields.ArgParseItem -->
<g id="edge11" class="edge">
<title>clak.fields.Command&#45;&gt;clak.fields.ArgParseItem</title>
<path fill="none" stroke="black" d="M2432.53,-128.46C2420.04,-158.53 2403.54,-198.26 2389.7,-231.57"/>
<polygon fill="none" stroke="black" points="2386.49,-230.17 2385.89,-240.74 2392.96,-232.85 2386.49,-230.17"/>
</g>
<!-- clak.formatters.RecursiveHelpFormatter -->
<g id="node16" class="node">
<title>clak.formatters.RecursiveHelpFormatter</title>
<polygon fill="none" stroke="black" points="2852.12,-56.25 2852.12,-106.75 3159.12,-106.75 3159.12,-56.25 2852.12,-56.25"/>
<text text-anchor="start" x="2860.12" y="-89.45" font-family="Times,serif" font-size="14.00">clak.formatters.RecursiveHelpFormatter</text>
<polyline fill="none" stroke="black" points="2852.12,-81.5 3159.12,-81.5"/>
<polyline fill="none" stroke="black" points="2852.12,-81.5 3159.12,-81.5"/>
<text text-anchor="start" x="3003.38" y="-64.2" font-family="Times,serif" font-size="14.00"> </text>
</g>
<!-- clak.parsers.ArgumentParserPlus -->
<g id="node17" class="node">
<title>clak.parsers.ArgumentParserPlus</title>
<polygon fill="none" stroke="black" points="3177.62,-0.5 3177.62,-162.5 3481.62,-162.5 3481.62,-0.5 3177.62,-0.5"/>
<text text-anchor="start" x="3209.62" y="-145.2" font-family="Times,serif" font-size="14.00">clak.parsers.ArgumentParserPlus</text>
<polyline fill="none" stroke="black" points="3177.62,-137.25 3481.62,-137.25"/>
<text text-anchor="start" x="3185.62" y="-119.95" font-family="Times,serif" font-size="14.00">arguments_dict : dict[str, ArgParseItem]</text>
<text text-anchor="start" x="3185.62" y="-102.7" font-family="Times,serif" font-size="14.00">children : dict</text>
<text text-anchor="start" x="3185.62" y="-85.45" font-family="Times,serif" font-size="14.00">parser : ArgumentParser</text>
<text text-anchor="start" x="3185.62" y="-68.2" font-family="Times,serif" font-size="14.00">subparsers</text>
<polyline fill="none" stroke="black" points="3177.62,-60.25 3481.62,-60.25"/>
<text text-anchor="start" x="3279.75" y="-42.95" font-family="Times,serif" font-size="14.00">init_children()</text>
<text text-anchor="start" x="3279.75" y="-25.7" font-family="Times,serif" font-size="14.00">init_options()</text>
<text text-anchor="start" x="3279.75" y="-8.45" font-family="Times,serif" font-size="14.00">parse_args()</text>
</g>
</g>
</svg>
