<?xml version="1.0" encoding="UTF-8" standalone="no"?>
<!DOCTYPE svg PUBLIC "-//W3C//DTD SVG 1.1//EN"
 "http://www.w3.org/Graphics/SVG/1.1/DTD/svg11.dtd">
<!-- Generated by graphviz version 12.1.2 (0)
 -->
<!-- Title: packages_clak Pages: 1 -->
<svg width="503pt" height="260pt"
 viewBox="0.00 0.00 502.75 260.00" xmlns="http://www.w3.org/2000/svg" xmlns:xlink="http://www.w3.org/1999/xlink">
<g id="graph0" class="graph" transform="scale(1 1) rotate(0) translate(4 256)">
<title>packages_clak</title>
<polygon fill="white" stroke="none" points="-4,4 -4,-256 498.75,-256 498.75,4 -4,4"/>
<!-- clak -->
<g id="node1" class="node">
<title>clak</title>
<polygon fill="none" stroke="black" points="103,-36 49,-36 49,0 103,0 103,-36"/>
<text text-anchor="middle" x="76" y="-13.32" font-family="Times,serif" font-size="14.00">clak</text>
</g>
<!-- clak.fields -->
<g id="node3" class="node">
<title>clak.fields</title>
<polygon fill="none" stroke="black" points="88,-180 0,-180 0,-144 88,-144 88,-180"/>
<text text-anchor="middle" x="44" y="-157.32" font-family="Times,serif" font-size="14.00">clak.fields</text>
</g>
<!-- clak&#45;&gt;clak.fields -->
<g id="edge1" class="edge">
<title>clak&#45;&gt;clak.fields</title>
<path fill="none" stroke="black" d="M68.31,-36.35C64.08,-46.54 59.08,-59.79 56,-72 50.95,-91.99 47.91,-115.08 46.16,-132.73"/>
<polygon fill="black" stroke="black" points="45.27,-142.51 41.7,-132.14 45.62,-138.74 46.18,-132.55 46.18,-132.55 46.18,-132.55 45.62,-138.74 50.66,-132.95 45.27,-142.51"/>
</g>
<!-- clak.parsers -->
<g id="node6" class="node">
<title>clak.parsers</title>
<polygon fill="none" stroke="black" points="167.5,-108 64.5,-108 64.5,-72 167.5,-72 167.5,-108"/>
<text text-anchor="middle" x="116" y="-85.33" font-family="Times,serif" font-size="14.00">clak.parsers</text>
</g>
<!-- clak&#45;&gt;clak.parsers -->
<g id="edge2" class="edge">
<title>clak&#45;&gt;clak.parsers</title>
<path fill="none" stroke="black" d="M85.89,-36.3C90.34,-44.1 95.71,-53.49 100.67,-62.17"/>
<polygon fill="black" stroke="black" points="105.62,-70.84 96.75,-64.39 103.75,-67.55 100.66,-62.16 100.66,-62.16 100.66,-62.16 103.75,-67.55 104.57,-59.92 105.62,-70.84"/>
</g>
<!-- clak.ORIG_merge_parsers -->
<g id="node2" class="node">
<title>clak.ORIG_merge_parsers</title>
<polygon fill="none" stroke="black" points="321.25,-36 120.75,-36 120.75,0 321.25,0 321.25,-36"/>
<text text-anchor="middle" x="221" y="-13.32" font-family="Times,serif" font-size="14.00">clak.ORIG_merge_parsers</text>
</g>
<!-- clak.formatters -->
<g id="node4" class="node">
<title>clak.formatters</title>
<polygon fill="none" stroke="black" points="142.75,-252 17.25,-252 17.25,-216 142.75,-216 142.75,-252"/>
<text text-anchor="middle" x="80" y="-229.32" font-family="Times,serif" font-size="14.00">clak.formatters</text>
</g>
<!-- clak.fields&#45;&gt;clak.formatters -->
<g id="edge3" class="edge">
<title>clak.fields&#45;&gt;clak.formatters</title>
<path fill="none" stroke="black" d="M52.9,-180.3C56.91,-188.1 61.74,-197.49 66.2,-206.17"/>
<polygon fill="black" stroke="black" points="70.65,-214.81 62.07,-207.98 68.92,-211.45 66.07,-205.92 66.07,-205.92 66.07,-205.92 68.92,-211.45 70.07,-203.86 70.65,-214.81"/>
</g>
<!-- clak.merge_parsers -->
<g id="node5" class="node">
<title>clak.merge_parsers</title>
<polygon fill="none" stroke="black" points="494.75,-36 339.25,-36 339.25,0 494.75,0 494.75,-36"/>
<text text-anchor="middle" x="417" y="-13.32" font-family="Times,serif" font-size="14.00">clak.merge_parsers</text>
</g>
<!-- clak.parsers&#45;&gt;clak.fields -->
<g id="edge4" class="edge">
<title>clak.parsers&#45;&gt;clak.fields</title>
<path fill="none" stroke="black" d="M98.2,-108.3C89.63,-116.63 79.2,-126.78 69.78,-135.93"/>
<polygon fill="black" stroke="black" points="62.72,-142.8 66.75,-132.61 65.43,-140.17 69.89,-135.83 69.89,-135.83 69.89,-135.83 65.43,-140.17 73.02,-139.06 62.72,-142.8"/>
</g>
<!-- clak.parsers&#45;&gt;clak.formatters -->
<g id="edge5" class="edge">
<title>clak.parsers&#45;&gt;clak.formatters</title>
<path fill="none" stroke="black" d="M112.86,-108.18C109.45,-126.2 103.59,-155.27 97,-180 94.78,-188.35 92.03,-197.32 89.41,-205.48"/>
<polygon fill="black" stroke="black" points="86.33,-214.79 85.19,-203.88 87.52,-211.19 89.47,-205.29 89.47,-205.29 89.47,-205.29 87.52,-211.19 93.74,-206.7 86.33,-214.79"/>
</g>
</g>
</svg>
