<?xml version="1.0" encoding="UTF-8" standalone="no"?>
<!DOCTYPE svg PUBLIC "-//W3C//DTD SVG 1.1//EN"
 "http://www.w3.org/Graphics/SVG/1.1/DTD/svg11.dtd">
<!-- Generated by graphviz version 2.43.0 (0)
 -->
<!-- Title: classes_clak Pages: 1 -->
<svg width="2359pt" height="1147pt"
 viewBox="0.00 0.00 2359.00 1146.80" xmlns="http://www.w3.org/2000/svg" xmlns:xlink="http://www.w3.org/1999/xlink">
<g id="graph0" class="graph" transform="scale(1 1) rotate(0) translate(4 1142.8)">
<title>classes_clak</title>
<polygon fill="white" stroke="transparent" points="-4,4 -4,-1142.8 2355,-1142.8 2355,4 -4,4"/>
<!-- clak.nodes.Fn -->
<g id="node1" class="node">
<title>clak.nodes.Fn</title>
<polygon fill="none" stroke="black" points="463.5,-588.8 463.5,-672.8 578.5,-672.8 578.5,-588.8 463.5,-588.8"/>
<text text-anchor="start" x="471.5" y="-657.6" font-family="Times,serif" font-size="14.00">clak.nodes.Fn</text>
<polyline fill="none" stroke="black" points="463.5,-649.8 578.5,-649.8 "/>
<text text-anchor="start" x="474.5" y="-634.6" font-family="Times,serif" font-size="14.00">args : tuple</text>
<text text-anchor="start" x="474.5" y="-619.6" font-family="Times,serif" font-size="14.00">kwargs : dict</text>
<polyline fill="none" stroke="black" points="463.5,-611.8 578.5,-611.8 "/>
<text text-anchor="start" x="518.5" y="-596.6" font-family="Times,serif" font-size="14.00"> </text>
</g>
<!-- clak.nodes.Node -->
<g id="node2" class="node">
<title>clak.nodes.Node</title>
<polygon fill="none" stroke="black" points="953,-994.3 953,-1138.3 1815,-1138.3 1815,-994.3 953,-994.3"/>
<text text-anchor="start" x="1325" y="-1123.1" font-family="Times,serif" font-size="14.00">clak.nodes.Node</text>
<polyline fill="none" stroke="black" points="953,-1115.3 1815,-1115.3 "/>
<text text-anchor="start" x="1311.5" y="-1100.1" font-family="Times,serif" font-size="14.00">name : Optional[str]</text>
<text text-anchor="start" x="1311.5" y="-1085.1" font-family="Times,serif" font-size="14.00">parent : str</text>
<polyline fill="none" stroke="black" points="953,-1077.3 1815,-1077.3 "/>
<text text-anchor="start" x="961" y="-1062.1" font-family="Times,serif" font-size="14.00">get_fname(attr)</text>
<text text-anchor="start" x="961" y="-1047.1" font-family="Times,serif" font-size="14.00">get_hierarchy()</text>
<text text-anchor="start" x="961" y="-1032.1" font-family="Times,serif" font-size="14.00">get_name(attr, default)</text>
<text text-anchor="start" x="961" y="-1017.1" font-family="Times,serif" font-size="14.00">query_cfg_inst(name, override, default, report, raise_on_undeclared)</text>
<text text-anchor="start" x="961" y="-1002.1" font-family="Times,serif" font-size="14.00">query_cfg_parents(name: str, default: Any, include_self: bool, report: bool): Union[Any, Tuple[Any, Union[str, List[str]]]]</text>
</g>
<!-- clak.parser.ArgParseItem -->
<g id="node3" class="node">
<title>clak.parser.ArgParseItem</title>
<polygon fill="none" stroke="black" points="350.5,-183.4 350.5,-252.4 665.5,-252.4 665.5,-183.4 350.5,-183.4"/>
<text text-anchor="start" x="417.5" y="-237.2" font-family="Times,serif" font-size="14.00">clak.parser.ArgParseItem</text>
<polyline fill="none" stroke="black" points="350.5,-229.4 665.5,-229.4 "/>
<text text-anchor="start" x="467.5" y="-214.2" font-family="Times,serif" font-size="14.00">destination</text>
<polyline fill="none" stroke="black" points="350.5,-206.4 665.5,-206.4 "/>
<text text-anchor="start" x="358.5" y="-191.2" font-family="Times,serif" font-size="14.00">build_params(dest: str): Tuple[tuple, dict]</text>
</g>
<!-- clak.parser.ArgParseItem&#45;&gt;clak.nodes.Fn -->
<g id="edge1" class="edge">
<title>clak.parser.ArgParseItem&#45;&gt;clak.nodes.Fn</title>
<path fill="none" stroke="black" d="M509.06,-252.53C511.34,-324.38 516.68,-493.25 519.38,-578.57"/>
<polygon fill="none" stroke="black" points="515.89,-578.91 519.7,-588.79 522.88,-578.69 515.89,-578.91"/>
</g>
<!-- clak.parser.Argument -->
<g id="node4" class="node">
<title>clak.parser.Argument</title>
<polygon fill="none" stroke="black" points="0,-37.1 0,-107.9 504,-107.9 504,-37.1 0,-37.1"/>
<text text-anchor="start" x="175" y="-92.7" font-family="Times,serif" font-size="14.00">clak.parser.Argument</text>
<polyline fill="none" stroke="black" points="0,-84.9 504,-84.9 "/>
<polyline fill="none" stroke="black" points="0,-60.1 504,-60.1 "/>
<text text-anchor="start" x="8" y="-44.9" font-family="Times,serif" font-size="14.00">attach_arg_to_parser(key: str, config: &#39;ParserNode&#39;): argparse.Action</text>
</g>
<!-- clak.parser.Argument&#45;&gt;clak.parser.ArgParseItem -->
<g id="edge2" class="edge">
<title>clak.parser.Argument&#45;&gt;clak.parser.ArgParseItem</title>
<path fill="none" stroke="black" d="M313.64,-108.03C351.31,-129.13 399.57,-156.16 438.58,-178.01"/>
<polygon fill="none" stroke="black" points="437.34,-181.33 447.77,-183.16 440.76,-175.22 437.34,-181.33"/>
</g>
<!-- clak.parser.FormatEnv -->
<g id="node5" class="node">
<title>clak.parser.FormatEnv</title>
<polygon fill="none" stroke="black" points="1024.5,-37.1 1024.5,-107.9 1203.5,-107.9 1203.5,-37.1 1024.5,-37.1"/>
<text text-anchor="start" x="1032.5" y="-92.7" font-family="Times,serif" font-size="14.00">clak.parser.FormatEnv</text>
<polyline fill="none" stroke="black" points="1024.5,-84.9 1203.5,-84.9 "/>
<polyline fill="none" stroke="black" points="1024.5,-60.1 1203.5,-60.1 "/>
<text text-anchor="start" x="1097" y="-44.9" font-family="Times,serif" font-size="14.00">get()</text>
</g>
<!-- clak.parser.MetaSetting -->
<g id="node6" class="node">
<title>clak.parser.MetaSetting</title>
<polygon fill="none" stroke="black" points="1081,-182.5 1081,-253.3 1269,-253.3 1269,-182.5 1081,-182.5"/>
<text text-anchor="start" x="1089" y="-238.1" font-family="Times,serif" font-size="14.00">clak.parser.MetaSetting</text>
<polyline fill="none" stroke="black" points="1081,-230.3 1269,-230.3 "/>
<polyline fill="none" stroke="black" points="1081,-205.5 1269,-205.5 "/>
<text text-anchor="start" x="1172.5" y="-190.3" font-family="Times,serif" font-size="14.00"> </text>
</g>
<!-- clak.parser.MetaSetting&#45;&gt;clak.nodes.Fn -->
<g id="edge3" class="edge">
<title>clak.parser.MetaSetting&#45;&gt;clak.nodes.Fn</title>
<path fill="none" stroke="black" d="M1080.96,-225.46C910.98,-237.52 569.2,-262.8 560,-271.8 478.17,-351.79 493.42,-500.4 508.76,-578.62"/>
<polygon fill="none" stroke="black" points="505.39,-579.62 510.81,-588.72 512.25,-578.22 505.39,-579.62"/>
</g>
<!-- clak.parser.ParserNode -->
<g id="node8" class="node">
<title>clak.parser.ParserNode</title>
<polygon fill="none" stroke="black" points="1074.5,-305.3 1074.5,-956.3 1693.5,-956.3 1693.5,-305.3 1074.5,-305.3"/>
<text text-anchor="start" x="1300.5" y="-941.1" font-family="Times,serif" font-size="14.00">clak.parser.ParserNode</text>
<polyline fill="none" stroke="black" points="1074.5,-933.3 1693.5,-933.3 "/>
<text text-anchor="start" x="1214.5" y="-918.1" font-family="Times,serif" font-size="14.00">add_help : bool</text>
<text text-anchor="start" x="1214.5" y="-903.1" font-family="Times,serif" font-size="14.00">arguments_dict : dict[str, ArgParseItem]</text>
<text text-anchor="start" x="1214.5" y="-888.1" font-family="Times,serif" font-size="14.00">children : dict[str, type]</text>
<text text-anchor="start" x="1214.5" y="-873.1" font-family="Times,serif" font-size="14.00">fkey : str</text>
<text text-anchor="start" x="1214.5" y="-858.1" font-family="Times,serif" font-size="14.00">inject_as_subparser : bool</text>
<text text-anchor="start" x="1214.5" y="-843.1" font-family="Times,serif" font-size="14.00">key : Optional[str]</text>
<text text-anchor="start" x="1214.5" y="-828.1" font-family="Times,serif" font-size="14.00">logger : NoneType, RootLogger</text>
<text text-anchor="start" x="1214.5" y="-813.1" font-family="Times,serif" font-size="14.00">meta__arguments_dict : dict[str, Argument]</text>
<text text-anchor="start" x="1214.5" y="-798.1" font-family="Times,serif" font-size="14.00">meta__cli_view : Optional[ClakView]</text>
<text text-anchor="start" x="1214.5" y="-783.1" font-family="Times,serif" font-size="14.00">meta__config__app_name</text>
<text text-anchor="start" x="1214.5" y="-768.1" font-family="Times,serif" font-size="14.00">meta__config__app_proc_name</text>
<text text-anchor="start" x="1214.5" y="-753.1" font-family="Times,serif" font-size="14.00">meta__config__cli_view</text>
<text text-anchor="start" x="1214.5" y="-738.1" font-family="Times,serif" font-size="14.00">meta__config__help_description</text>
<text text-anchor="start" x="1214.5" y="-723.1" font-family="Times,serif" font-size="14.00">meta__config__help_epilog</text>
<text text-anchor="start" x="1214.5" y="-708.1" font-family="Times,serif" font-size="14.00">meta__config__help_usage</text>
<text text-anchor="start" x="1214.5" y="-693.1" font-family="Times,serif" font-size="14.00">meta__config__known_exceptions</text>
<text text-anchor="start" x="1214.5" y="-678.1" font-family="Times,serif" font-size="14.00">meta__config__name</text>
<text text-anchor="start" x="1214.5" y="-663.1" font-family="Times,serif" font-size="14.00">meta__name : str</text>
<text text-anchor="start" x="1214.5" y="-648.1" font-family="Times,serif" font-size="14.00">meta__subcommands_dict : dict[str, SubParser]</text>
<text text-anchor="start" x="1214.5" y="-633.1" font-family="Times,serif" font-size="14.00">name : NotSet, str, tuple</text>
<text text-anchor="start" x="1214.5" y="-618.1" font-family="Times,serif" font-size="14.00">parser : ArgumentParser</text>
<text text-anchor="start" x="1214.5" y="-603.1" font-family="Times,serif" font-size="14.00">proc_name : NoneType, Optional[str]</text>
<text text-anchor="start" x="1214.5" y="-588.1" font-family="Times,serif" font-size="14.00">registry : dict</text>
<text text-anchor="start" x="1214.5" y="-573.1" font-family="Times,serif" font-size="14.00">subparsers</text>
<polyline fill="none" stroke="black" points="1074.5,-565.3 1693.5,-565.3 "/>
<text text-anchor="start" x="1082.5" y="-551.1" font-family="Times,serif" font-size="14.00">add_argument(key: str, arg: Optional[Argument]): None</text>
<text text-anchor="start" x="1082.5" y="-537.1" font-family="Times,serif" font-size="14.00">add_arguments(arguments: dict)</text>
<text text-anchor="start" x="1082.5" y="-523.1" font-family="Times,serif" font-size="14.00">add_subcommand(key: str, arg): None</text>
<text text-anchor="start" x="1082.5" y="-509.1" font-family="Times,serif" font-size="14.00">add_subcommands(subcommands: dict)</text>
<text text-anchor="start" x="1082.5" y="-495.1" font-family="Times,serif" font-size="14.00">clean_terminate(err, known_exceptions)</text>
<text text-anchor="start" x="1082.5" y="-481.1" font-family="Times,serif" font-size="14.00">cli_execute(args: Optional[Dict[str, Any]]): Any</text>
<text text-anchor="start" x="1082.5" y="-467.1" font-family="Times,serif" font-size="14.00">cli_exit(status, message)</text>
<text text-anchor="start" x="1082.5" y="-453.1" font-family="Times,serif" font-size="14.00">cli_exit_error(message)</text>
<text text-anchor="start" x="1082.5" y="-439.1" font-family="Times,serif" font-style="italic" font-size="14.00">cli_group</text>
<text text-anchor="start" x="1148.5" y="-439.1" font-family="Times,serif" font-size="14.00">(ctx: SimpleNamespace): None</text>
<text text-anchor="start" x="1082.5" y="-425.1" font-family="Times,serif" font-size="14.00">cli_run(): None</text>
<text text-anchor="start" x="1082.5" y="-411.1" font-family="Times,serif" font-size="14.00">create_parser()</text>
<text text-anchor="start" x="1082.5" y="-397.1" font-family="Times,serif" font-size="14.00">dispatch(args: Optional[Dict[str, Any]], trace: Optional[bool]): Any</text>
<text text-anchor="start" x="1082.5" y="-383.1" font-family="Times,serif" font-size="14.00">find_closest_subcommand(args: Optional[List[str]]): &#39;ParserNode&#39;</text>
<text text-anchor="start" x="1082.5" y="-369.1" font-family="Times,serif" font-size="14.00">get_fname(attr)</text>
<text text-anchor="start" x="1082.5" y="-355.1" font-family="Times,serif" font-size="14.00">parse_args(args: Optional[Union[str, List[str], Dict[str, Any]]]): argparse.Namespace</text>
<text text-anchor="start" x="1082.5" y="-341.1" font-family="Times,serif" font-size="14.00">show_epilog()</text>
<text text-anchor="start" x="1082.5" y="-327.1" font-family="Times,serif" font-size="14.00">show_help()</text>
<text text-anchor="start" x="1082.5" y="-313.1" font-family="Times,serif" font-size="14.00">show_usage()</text>
</g>
<!-- clak.parser.MetaSetting&#45;&gt;clak.parser.ParserNode -->
<g id="edge7" class="edge">
<title>clak.parser.MetaSetting&#45;&gt;clak.parser.ParserNode</title>
<path fill="none" stroke="black" d="M1080.95,-225.46C912.42,-237.42 575.58,-262.44 567,-271.8 562.49,-276.71 563.31,-281.25 567,-286.8 582.39,-309.95 840.91,-416.33 1063.08,-504.56"/>
<polygon fill="black" stroke="black" points="1063.14,-504.58 1070.2,-503.08 1074.3,-509.01 1067.25,-510.51 1063.14,-504.58"/>
<text text-anchor="middle" x="639.5" y="-275.6" font-family="Times,serif" font-size="14.00" fill="green">meta__config__name</text>
</g>
<!-- clak.parser.MetaSetting&#45;&gt;clak.parser.ParserNode -->
<g id="edge8" class="edge">
<title>clak.parser.MetaSetting&#45;&gt;clak.parser.ParserNode</title>
<path fill="none" stroke="black" d="M1080.83,-223.67C958.43,-230.86 757.54,-246.38 735,-271.8 730.58,-276.79 731.56,-281.09 735,-286.8 807.55,-407.2 938.05,-487.52 1063.11,-539.95"/>
<polygon fill="black" stroke="black" points="1063.32,-540.04 1070.4,-538.63 1074.41,-544.62 1067.34,-546.03 1063.32,-540.04"/>
<text text-anchor="middle" x="824" y="-275.6" font-family="Times,serif" font-size="14.00" fill="green">meta__config__app_name</text>
</g>
<!-- clak.parser.MetaSetting&#45;&gt;clak.parser.ParserNode -->
<g id="edge9" class="edge">
<title>clak.parser.MetaSetting&#45;&gt;clak.parser.ParserNode</title>
<path fill="none" stroke="black" d="M1080.86,-227.72C1022.13,-235.4 954.32,-248.98 936,-271.8 931.83,-277 933.05,-280.82 936,-286.8 966.12,-347.8 1012.88,-400.95 1065.02,-446.02"/>
<polygon fill="black" stroke="black" points="1065.33,-446.28 1072.49,-447.12 1074.47,-454.05 1067.31,-453.21 1065.33,-446.28"/>
<text text-anchor="middle" x="1044.5" y="-275.6" font-family="Times,serif" font-size="14.00" fill="green">meta__config__app_proc_name</text>
</g>
<!-- clak.parser.MetaSetting&#45;&gt;clak.parser.ParserNode -->
<g id="edge10" class="edge">
<title>clak.parser.MetaSetting&#45;&gt;clak.parser.ParserNode</title>
<path fill="none" stroke="black" d="M1172.02,-253.61C1172.01,-264.42 1172.97,-276.26 1176,-286.8 1176.66,-289.09 1177.34,-291.38 1178.03,-293.67"/>
<polygon fill="black" stroke="black" points="1178.04,-293.68 1183.67,-298.19 1181.67,-305.12 1176.04,-300.61 1178.04,-293.68"/>
<text text-anchor="middle" x="1269" y="-275.6" font-family="Times,serif" font-size="14.00" fill="green">meta__config__help_usage</text>
</g>
<!-- clak.parser.MetaSetting&#45;&gt;clak.parser.ParserNode -->
<g id="edge11" class="edge">
<title>clak.parser.MetaSetting&#45;&gt;clak.parser.ParserNode</title>
<path fill="none" stroke="black" d="M1269.06,-235.04C1309.15,-243.95 1349.56,-256.37 1362,-271.8 1367.84,-279.05 1373.07,-286.67 1377.75,-294.6"/>
<polygon fill="black" stroke="black" points="1377.8,-294.68 1384.19,-298.01 1383.58,-305.19 1377.19,-301.87 1377.8,-294.68"/>
<text text-anchor="middle" x="1480" y="-275.6" font-family="Times,serif" font-size="14.00" fill="green">meta__config__help_description</text>
</g>
<!-- clak.parser.MetaSetting&#45;&gt;clak.parser.ParserNode -->
<g id="edge12" class="edge">
<title>clak.parser.MetaSetting&#45;&gt;clak.parser.ParserNode</title>
<path fill="none" stroke="black" d="M1269.12,-224.23C1386.58,-231.85 1574.72,-247.68 1596,-271.8 1602.41,-279.07 1607.57,-286.56 1611.59,-294.24"/>
<polygon fill="black" stroke="black" points="1611.6,-294.25 1617.71,-298.08 1616.52,-305.2 1610.41,-301.37 1611.6,-294.25"/>
<text text-anchor="middle" x="1696.5" y="-275.6" font-family="Times,serif" font-size="14.00" fill="green">meta__config__help_epilog</text>
</g>
<!-- clak.parser.MetaSetting&#45;&gt;clak.parser.ParserNode -->
<g id="edge13" class="edge">
<title>clak.parser.MetaSetting&#45;&gt;clak.parser.ParserNode</title>
<path fill="none" stroke="black" d="M1269.01,-220.09C1433.45,-223.15 1759.26,-233.96 1794,-271.8 1863.44,-347.43 1800.08,-423.35 1704.13,-485.69"/>
<polygon fill="black" stroke="black" points="1703.95,-485.81 1701.04,-492.41 1693.83,-492.26 1696.74,-485.66 1703.95,-485.81"/>
<text text-anchor="middle" x="1921" y="-275.6" font-family="Times,serif" font-size="14.00" fill="green">meta__config__known_exceptions</text>
</g>
<!-- clak.parser.MetaSetting&#45;&gt;clak.parser.ParserNode -->
<g id="edge14" class="edge">
<title>clak.parser.MetaSetting&#45;&gt;clak.parser.ParserNode</title>
<path fill="none" stroke="black" d="M1269.05,-221.21C1488.29,-227.05 2016.8,-243.95 2043,-271.8 2175.42,-412.54 1932.79,-510.42 1705.48,-567.83"/>
<polygon fill="black" stroke="black" points="1705.28,-567.88 1700.43,-573.22 1693.64,-570.79 1698.49,-565.46 1705.28,-567.88"/>
<text text-anchor="middle" x="2137.5" y="-275.6" font-family="Times,serif" font-size="14.00" fill="green">meta__config__cli_view</text>
</g>
<!-- clak.parser.Parser -->
<g id="node7" class="node">
<title>clak.parser.Parser</title>
<polygon fill="none" stroke="black" points="2205,-182.5 2205,-253.3 2351,-253.3 2351,-182.5 2205,-182.5"/>
<text text-anchor="start" x="2213" y="-238.1" font-family="Times,serif" font-size="14.00">clak.parser.Parser</text>
<polyline fill="none" stroke="black" points="2205,-230.3 2351,-230.3 "/>
<polyline fill="none" stroke="black" points="2205,-205.5 2351,-205.5 "/>
<text text-anchor="start" x="2275.5" y="-190.3" font-family="Times,serif" font-size="14.00"> </text>
</g>
<!-- clak.parser.Parser&#45;&gt;clak.parser.ParserNode -->
<g id="edge4" class="edge">
<title>clak.parser.Parser&#45;&gt;clak.parser.ParserNode</title>
<path fill="none" stroke="black" d="M2255.45,-253.38C2246.45,-265.17 2235.3,-277.66 2223,-286.8 2068.04,-401.94 1868.92,-485.5 1703.55,-541.3"/>
<polygon fill="none" stroke="black" points="1702.08,-538.1 1693.71,-544.6 1704.31,-544.74 1702.08,-538.1"/>
</g>
<!-- clak.parser.ParserNode&#45;&gt;clak.nodes.Node -->
<g id="edge5" class="edge">
<title>clak.parser.ParserNode&#45;&gt;clak.nodes.Node</title>
<path fill="none" stroke="black" d="M1384,-956.47C1384,-966.11 1384,-975.37 1384,-984.13"/>
<polygon fill="none" stroke="black" points="1380.5,-984.19 1384,-994.19 1387.5,-984.19 1380.5,-984.19"/>
</g>
<!-- clak.parser.RegistryEntry -->
<g id="node9" class="node">
<title>clak.parser.RegistryEntry</title>
<polygon fill="none" stroke="black" points="1221.5,-37.1 1221.5,-107.9 1502.5,-107.9 1502.5,-37.1 1221.5,-37.1"/>
<text text-anchor="start" x="1270" y="-92.7" font-family="Times,serif" font-size="14.00">clak.parser.RegistryEntry</text>
<polyline fill="none" stroke="black" points="1221.5,-84.9 1502.5,-84.9 "/>
<polyline fill="none" stroke="black" points="1221.5,-60.1 1502.5,-60.1 "/>
<text text-anchor="start" x="1229.5" y="-44.9" font-family="Times,serif" font-size="14.00">add_entry(key: str, value: Any): None</text>
</g>
<!-- clak.parser.SubParser -->
<g id="node10" class="node">
<title>clak.parser.SubParser</title>
<polygon fill="none" stroke="black" points="522,-0.5 522,-144.5 1006,-144.5 1006,-0.5 522,-0.5"/>
<text text-anchor="start" x="685.5" y="-129.3" font-family="Times,serif" font-size="14.00">clak.parser.SubParser</text>
<polyline fill="none" stroke="black" points="522,-121.5 1006,-121.5 "/>
<text text-anchor="start" x="656" y="-106.3" font-family="Times,serif" font-size="14.00">cls</text>
<text text-anchor="start" x="656" y="-91.3" font-family="Times,serif" font-size="14.00">meta__description : NoneType</text>
<text text-anchor="start" x="656" y="-76.3" font-family="Times,serif" font-size="14.00">meta__epilog : NoneType</text>
<text text-anchor="start" x="656" y="-61.3" font-family="Times,serif" font-size="14.00">meta__help_flags : bool</text>
<text text-anchor="start" x="656" y="-46.3" font-family="Times,serif" font-size="14.00">meta__usage : NoneType</text>
<text text-anchor="start" x="656" y="-31.3" font-family="Times,serif" font-size="14.00">use_subparsers : bool</text>
<polyline fill="none" stroke="black" points="522,-23.5 1006,-23.5 "/>
<text text-anchor="start" x="530" y="-8.3" font-family="Times,serif" font-size="14.00">attach_sub_to_parser(key: str, config: &#39;ParserNode&#39;): &#39;ParserNode&#39;</text>
</g>
<!-- clak.parser.SubParser&#45;&gt;clak.parser.ArgParseItem -->
<g id="edge6" class="edge">
<title>clak.parser.SubParser&#45;&gt;clak.parser.ArgParseItem</title>
<path fill="none" stroke="black" d="M637.12,-144.57C616.38,-156.19 595.6,-167.83 576.95,-178.28"/>
<polygon fill="none" stroke="black" points="574.99,-175.36 567.98,-183.3 578.42,-181.47 574.99,-175.36"/>
</g>
</g>
</svg>
