<?xml version="1.0" encoding="UTF-8" standalone="no"?>
<!DOCTYPE svg PUBLIC "-//W3C//DTD SVG 1.1//EN"
 "http://www.w3.org/Graphics/SVG/1.1/DTD/svg11.dtd">
<!-- Generated by graphviz version 2.43.0 (0)
 -->
<!-- Title: classes_clak Pages: 1 -->
<svg width="1617pt" height="289pt"
 viewBox="0.00 0.00 1617.00 289.00" xmlns="http://www.w3.org/2000/svg" xmlns:xlink="http://www.w3.org/1999/xlink">
<g id="graph0" class="graph" transform="scale(1 1) rotate(0) translate(4 285)">
<title>classes_clak</title>
<polygon fill="white" stroke="transparent" points="-4,4 -4,-285 1613,-285 1613,4 -4,4"/>
<!-- clak.fields.ArgParseItem -->
<g id="node1" class="node">
<title>clak.fields.ArgParseItem</title>
<polygon fill="none" stroke="black" points="237,-181.5 237,-280.5 428,-280.5 428,-181.5 237,-181.5"/>
<text text-anchor="start" x="245" y="-265.3" font-family="Times,serif" font-size="14.00">clak.fields.ArgParseItem</text>
<polyline fill="none" stroke="black" points="237,-257.5 428,-257.5 "/>
<text text-anchor="start" x="286" y="-242.3" font-family="Times,serif" font-size="14.00">args : tuple</text>
<text text-anchor="start" x="286" y="-227.3" font-family="Times,serif" font-size="14.00">destination</text>
<text text-anchor="start" x="286" y="-212.3" font-family="Times,serif" font-size="14.00">kwargs : dict</text>
<polyline fill="none" stroke="black" points="237,-204.5 428,-204.5 "/>
<text text-anchor="start" x="249" y="-189.3" font-family="Times,serif" font-size="14.00">build_params(dest: str)</text>
</g>
<!-- clak.fields.Argument -->
<g id="node2" class="node">
<title>clak.fields.Argument</title>
<polygon fill="none" stroke="black" points="0,-37.1 0,-107.9 177,-107.9 177,-37.1 0,-37.1"/>
<text text-anchor="start" x="14.5" y="-92.7" font-family="Times,serif" font-size="14.00">clak.fields.Argument</text>
<polyline fill="none" stroke="black" points="0,-84.9 177,-84.9 "/>
<polyline fill="none" stroke="black" points="0,-60.1 177,-60.1 "/>
<text text-anchor="start" x="8" y="-44.9" font-family="Times,serif" font-size="14.00">create_arg(key, config)</text>
</g>
<!-- clak.fields.Argument&#45;&gt;clak.fields.ArgParseItem -->
<g id="edge1" class="edge">
<title>clak.fields.Argument&#45;&gt;clak.fields.ArgParseItem</title>
<path fill="none" stroke="black" d="M133.68,-107.96C150.06,-120.05 168.87,-133.48 186.5,-145 202.5,-155.45 219.8,-166.09 236.72,-176.14"/>
<polygon fill="none" stroke="black" points="235.13,-179.27 245.52,-181.34 238.69,-173.24 235.13,-179.27"/>
</g>
<!-- clak.fields.Command -->
<g id="node3" class="node">
<title>clak.fields.Command</title>
<polygon fill="none" stroke="black" points="195.5,-30.5 195.5,-114.5 959.5,-114.5 959.5,-30.5 195.5,-30.5"/>
<text text-anchor="start" x="503.5" y="-99.3" font-family="Times,serif" font-size="14.00">clak.fields.Command</text>
<polyline fill="none" stroke="black" points="195.5,-91.5 959.5,-91.5 "/>
<text text-anchor="start" x="567.5" y="-76.3" font-family="Times,serif" font-size="14.00">cls</text>
<polyline fill="none" stroke="black" points="195.5,-68.5 959.5,-68.5 "/>
<text text-anchor="start" x="203.5" y="-53.3" font-family="Times,serif" font-size="14.00">add_parser(key: str, other_parser: &#39;ArgumentParserPlus&#39;, parent_config: &#39;ArgumentParserPlus&#39;, help: str)</text>
<text text-anchor="start" x="203.5" y="-38.3" font-family="Times,serif" font-size="14.00">create_arg(key, config)</text>
</g>
<!-- clak.fields.Command&#45;&gt;clak.fields.ArgParseItem -->
<g id="edge2" class="edge">
<title>clak.fields.Command&#45;&gt;clak.fields.ArgParseItem</title>
<path fill="none" stroke="black" d="M513.13,-114.62C483.84,-133.33 448.78,-155.72 417.38,-175.78"/>
<polygon fill="none" stroke="black" points="415.17,-173.04 408.62,-181.37 418.94,-178.94 415.17,-173.04"/>
</g>
<!-- clak.formatters.RecursiveHelpFormatter -->
<g id="node4" class="node">
<title>clak.formatters.RecursiveHelpFormatter</title>
<polygon fill="none" stroke="black" points="977.5,-37.1 977.5,-107.9 1285.5,-107.9 1285.5,-37.1 977.5,-37.1"/>
<text text-anchor="start" x="985.5" y="-92.7" font-family="Times,serif" font-size="14.00">clak.formatters.RecursiveHelpFormatter</text>
<polyline fill="none" stroke="black" points="977.5,-84.9 1285.5,-84.9 "/>
<polyline fill="none" stroke="black" points="977.5,-60.1 1285.5,-60.1 "/>
<text text-anchor="start" x="1129" y="-44.9" font-family="Times,serif" font-size="14.00"> </text>
</g>
<!-- clak.parsers.ArgumentParserPlus -->
<g id="node5" class="node">
<title>clak.parsers.ArgumentParserPlus</title>
<polygon fill="none" stroke="black" points="1304,-0.5 1304,-144.5 1609,-144.5 1609,-0.5 1304,-0.5"/>
<text text-anchor="start" x="1336" y="-129.3" font-family="Times,serif" font-size="14.00">clak.parsers.ArgumentParserPlus</text>
<polyline fill="none" stroke="black" points="1304,-121.5 1609,-121.5 "/>
<text text-anchor="start" x="1312" y="-106.3" font-family="Times,serif" font-size="14.00">arguments_dict : dict[str, ArgParseItem]</text>
<text text-anchor="start" x="1312" y="-91.3" font-family="Times,serif" font-size="14.00">children : dict</text>
<text text-anchor="start" x="1312" y="-76.3" font-family="Times,serif" font-size="14.00">parser : ArgumentParser</text>
<text text-anchor="start" x="1312" y="-61.3" font-family="Times,serif" font-size="14.00">subparsers</text>
<polyline fill="none" stroke="black" points="1304,-53.5 1609,-53.5 "/>
<text text-anchor="start" x="1406.5" y="-38.3" font-family="Times,serif" font-size="14.00">init_children()</text>
<text text-anchor="start" x="1406.5" y="-23.3" font-family="Times,serif" font-size="14.00">init_options()</text>
<text text-anchor="start" x="1406.5" y="-8.3" font-family="Times,serif" font-size="14.00">parse_args()</text>
</g>
</g>
</svg>
