<?xml version="1.0" encoding="UTF-8" standalone="no"?>
<!DOCTYPE svg PUBLIC "-//W3C//DTD SVG 1.1//EN"
 "http://www.w3.org/Graphics/SVG/1.1/DTD/svg11.dtd">
<!-- Generated by graphviz version 2.43.0 (0)
 -->
<!-- Title: packages_clak Pages: 1 -->
<svg width="840pt" height="548pt"
 viewBox="0.00 0.00 839.61 548.00" xmlns="http://www.w3.org/2000/svg" xmlns:xlink="http://www.w3.org/1999/xlink">
<g id="graph0" class="graph" transform="scale(1 1) rotate(0) translate(4 544)">
<title>packages_clak</title>
<polygon fill="white" stroke="transparent" points="-4,4 -4,-544 835.61,-544 835.61,4 -4,4"/>
<!-- clak -->
<g id="node1" class="node">
<title>clak</title>
<polygon fill="none" stroke="black" points="362,-36 308,-36 308,0 362,0 362,-36"/>
<text text-anchor="middle" x="335" y="-14.3" font-family="Times,serif" font-size="14.00">clak</text>
</g>
<!-- clak.argparse_ -->
<g id="node2" class="node">
<title>clak.argparse_</title>
<polygon fill="none" stroke="black" points="248,-396 128,-396 128,-360 248,-360 248,-396"/>
<text text-anchor="middle" x="188" y="-374.3" font-family="Times,serif" font-size="14.00">clak.argparse_</text>
</g>
<!-- clak&#45;&gt;clak.argparse_ -->
<g id="edge1" class="edge">
<title>clak&#45;&gt;clak.argparse_</title>
<path fill="none" stroke="black" d="M307.87,-18.27C228.12,-17.65 0,-27.56 0,-161 0,-161 0,-161 0,-235 0,-297.03 65.97,-335.4 119.75,-356.37"/>
<polygon fill="black" stroke="black" points="129.29,-359.96 118.34,-360.65 124.61,-358.2 119.93,-356.44 119.93,-356.44 119.93,-356.44 124.61,-358.2 121.52,-352.23 129.29,-359.96 129.29,-359.96"/>
</g>
<!-- clak.comp.completion -->
<g id="node5" class="node">
<title>clak.comp.completion</title>
<polygon fill="none" stroke="black" points="591.5,-108 420.5,-108 420.5,-72 591.5,-72 591.5,-108"/>
<text text-anchor="middle" x="506" y="-86.3" font-family="Times,serif" font-size="14.00">clak.comp.completion</text>
</g>
<!-- clak&#45;&gt;clak.comp.completion -->
<g id="edge2" class="edge">
<title>clak&#45;&gt;clak.comp.completion</title>
<path fill="none" stroke="black" d="M362.1,-30.09C386.91,-40.25 424.29,-55.55 454.74,-68.02"/>
<polygon fill="black" stroke="black" points="464.36,-71.95 453.4,-72.33 459.73,-70.06 455.1,-68.16 455.1,-68.16 455.1,-68.16 459.73,-70.06 456.81,-64 464.36,-71.95 464.36,-71.95"/>
</g>
<!-- clak.comp.config -->
<g id="node6" class="node">
<title>clak.comp.config</title>
<polygon fill="none" stroke="black" points="402.5,-108 267.5,-108 267.5,-72 402.5,-72 402.5,-108"/>
<text text-anchor="middle" x="335" y="-86.3" font-family="Times,serif" font-size="14.00">clak.comp.config</text>
</g>
<!-- clak&#45;&gt;clak.comp.config -->
<g id="edge3" class="edge">
<title>clak&#45;&gt;clak.comp.config</title>
<path fill="none" stroke="black" d="M335,-36.3C335,-44.02 335,-53.29 335,-61.89"/>
<polygon fill="black" stroke="black" points="335,-71.9 330.5,-61.9 335,-66.9 335,-61.9 335,-61.9 335,-61.9 335,-66.9 339.5,-61.9 335,-71.9 335,-71.9"/>
</g>
<!-- clak.comp.logging -->
<g id="node7" class="node">
<title>clak.comp.logging</title>
<polygon fill="none" stroke="black" points="693,-180 547,-180 547,-144 693,-144 693,-180"/>
<text text-anchor="middle" x="620" y="-158.3" font-family="Times,serif" font-size="14.00">clak.comp.logging</text>
</g>
<!-- clak&#45;&gt;clak.comp.logging -->
<g id="edge4" class="edge">
<title>clak&#45;&gt;clak.comp.logging</title>
<path fill="none" stroke="black" d="M362.35,-20.72C423.26,-25.12 567.39,-38.85 601,-72 617.04,-87.82 621.11,-113.63 621.56,-133.39"/>
<polygon fill="black" stroke="black" points="621.49,-143.65 617.06,-133.62 621.53,-138.65 621.56,-133.65 621.56,-133.65 621.56,-133.65 621.53,-138.65 626.06,-133.68 621.49,-143.65 621.49,-143.65"/>
</g>
<!-- clak.comp.views -->
<g id="node8" class="node">
<title>clak.comp.views</title>
<polygon fill="none" stroke="black" points="819.5,-108 686.5,-108 686.5,-72 819.5,-72 819.5,-108"/>
<text text-anchor="middle" x="753" y="-86.3" font-family="Times,serif" font-size="14.00">clak.comp.views</text>
</g>
<!-- clak&#45;&gt;clak.comp.views -->
<g id="edge5" class="edge">
<title>clak&#45;&gt;clak.comp.views</title>
<path fill="none" stroke="black" d="M362.1,-23.54C424.68,-34.02 581.11,-60.22 676.03,-76.11"/>
<polygon fill="black" stroke="black" points="686.15,-77.81 675.55,-80.59 681.22,-76.98 676.29,-76.15 676.29,-76.15 676.29,-76.15 681.22,-76.98 677.03,-71.72 686.15,-77.81 686.15,-77.81"/>
</g>
<!-- clak.parser -->
<g id="node13" class="node">
<title>clak.parser</title>
<polygon fill="none" stroke="black" points="394,-252 298,-252 298,-216 394,-216 394,-252"/>
<text text-anchor="middle" x="346" y="-230.3" font-family="Times,serif" font-size="14.00">clak.parser</text>
</g>
<!-- clak&#45;&gt;clak.parser -->
<g id="edge6" class="edge">
<title>clak&#45;&gt;clak.parser</title>
<path fill="none" stroke="black" d="M307.76,-26.53C287.13,-34.62 260.86,-49.45 249,-72 241.56,-86.16 244.17,-92.75 249,-108 261.51,-147.5 291.48,-185.3 315.01,-208.8"/>
<polygon fill="black" stroke="black" points="322.4,-215.9 312.07,-212.21 318.79,-212.44 315.19,-208.97 315.19,-208.97 315.19,-208.97 318.79,-212.44 318.31,-205.73 322.4,-215.9 322.4,-215.9"/>
</g>
<!-- clak.common -->
<g id="node3" class="node">
<title>clak.common</title>
<polygon fill="none" stroke="black" points="331,-540 221,-540 221,-504 331,-504 331,-540"/>
<text text-anchor="middle" x="276" y="-518.3" font-family="Times,serif" font-size="14.00">clak.common</text>
</g>
<!-- clak.comp -->
<g id="node4" class="node">
<title>clak.comp</title>
<polygon fill="none" stroke="black" points="626,-36 538,-36 538,0 626,0 626,-36"/>
<text text-anchor="middle" x="582" y="-14.3" font-family="Times,serif" font-size="14.00">clak.comp</text>
</g>
<!-- clak.comp&#45;&gt;clak.comp.completion -->
<g id="edge7" class="edge">
<title>clak.comp&#45;&gt;clak.comp.completion</title>
<path fill="none" stroke="black" d="M563.21,-36.3C553.83,-44.95 542.32,-55.55 532.09,-64.97"/>
<polygon fill="black" stroke="black" points="524.57,-71.9 528.88,-61.81 528.25,-68.51 531.93,-65.12 531.93,-65.12 531.93,-65.12 528.25,-68.51 534.97,-68.43 524.57,-71.9 524.57,-71.9"/>
</g>
<!-- clak.comp&#45;&gt;clak.comp.config -->
<g id="edge8" class="edge">
<title>clak.comp&#45;&gt;clak.comp.config</title>
<path fill="none" stroke="black" d="M537.84,-31.51C500.89,-41.99 447.52,-57.11 404.79,-69.22"/>
<polygon fill="black" stroke="black" points="395.02,-71.99 403.41,-64.94 399.83,-70.63 404.64,-69.26 404.64,-69.26 404.64,-69.26 399.83,-70.63 405.86,-73.59 395.02,-71.99 395.02,-71.99"/>
</g>
<!-- clak.comp&#45;&gt;clak.comp.logging -->
<g id="edge9" class="edge">
<title>clak.comp&#45;&gt;clak.comp.logging</title>
<path fill="none" stroke="black" d="M605.75,-36.09C616.55,-45.35 628.2,-57.8 634,-72 642.19,-92.04 637.43,-116.41 631.34,-134.59"/>
<polygon fill="black" stroke="black" points="627.88,-143.98 627.11,-133.04 629.61,-139.29 631.33,-134.59 631.33,-134.59 631.33,-134.59 629.61,-139.29 635.56,-136.15 627.88,-143.98 627.88,-143.98"/>
</g>
<!-- clak.comp&#45;&gt;clak.comp.views -->
<g id="edge10" class="edge">
<title>clak.comp&#45;&gt;clak.comp.views</title>
<path fill="none" stroke="black" d="M623.83,-36.12C647.42,-45.78 677.06,-57.91 702,-68.12"/>
<polygon fill="black" stroke="black" points="711.3,-71.93 700.35,-72.31 706.68,-70.04 702.05,-68.14 702.05,-68.14 702.05,-68.14 706.68,-70.04 703.75,-63.98 711.3,-71.93 711.3,-71.93"/>
</g>
<!-- clak.comp.completion&#45;&gt;clak.comp.logging -->
<g id="edge11" class="edge">
<title>clak.comp.completion&#45;&gt;clak.comp.logging</title>
<path fill="none" stroke="black" d="M533.89,-108.12C548.79,-117.28 567.33,-128.66 583.38,-138.52"/>
<polygon fill="black" stroke="black" points="592.01,-143.81 581.13,-142.41 587.74,-141.19 583.48,-138.58 583.48,-138.58 583.48,-138.58 587.74,-141.19 585.84,-134.74 592.01,-143.81 592.01,-143.81"/>
</g>
<!-- clak.comp.completion&#45;&gt;clak.parser -->
<g id="edge12" class="edge">
<title>clak.comp.completion&#45;&gt;clak.parser</title>
<path fill="none" stroke="black" d="M486.7,-108.13C458.35,-133.29 405.33,-180.35 373.09,-208.96"/>
<polygon fill="black" stroke="black" points="365.37,-215.81 369.86,-205.81 369.11,-212.49 372.85,-209.17 372.85,-209.17 372.85,-209.17 369.11,-212.49 375.83,-212.54 365.37,-215.81 365.37,-215.81"/>
</g>
<!-- clak.comp.config&#45;&gt;clak.common -->
<g id="edge13" class="edge">
<title>clak.comp.config&#45;&gt;clak.common</title>
<path fill="none" stroke="black" d="M267.23,-94.36C179.58,-102.77 38,-131.98 38,-233 38,-233 38,-233 38,-379 38,-459.71 140.19,-495.62 210.65,-510.78"/>
<polygon fill="black" stroke="black" points="220.8,-512.87 210.1,-515.27 215.9,-511.87 211.01,-510.86 211.01,-510.86 211.01,-510.86 215.9,-511.87 211.91,-506.45 220.8,-512.87 220.8,-512.87"/>
</g>
<!-- clak.comp.config&#45;&gt;clak.comp.logging -->
<g id="edge14" class="edge">
<title>clak.comp.config&#45;&gt;clak.comp.logging</title>
<path fill="none" stroke="black" d="M402.54,-107.59C443.93,-117.75 497.1,-130.81 540.51,-141.48"/>
<polygon fill="black" stroke="black" points="550.47,-143.92 539.68,-145.91 545.61,-142.73 540.75,-141.54 540.75,-141.54 540.75,-141.54 545.61,-142.73 541.83,-137.17 550.47,-143.92 550.47,-143.92"/>
</g>
<!-- clak.exception -->
<g id="node10" class="node">
<title>clak.exception</title>
<polygon fill="none" stroke="black" points="185.5,-324 66.5,-324 66.5,-288 185.5,-288 185.5,-324"/>
<text text-anchor="middle" x="126" y="-302.3" font-family="Times,serif" font-size="14.00">clak.exception</text>
</g>
<!-- clak.comp.config&#45;&gt;clak.exception -->
<g id="edge15" class="edge">
<title>clak.comp.config&#45;&gt;clak.exception</title>
<path fill="none" stroke="black" d="M316.86,-108.06C291.76,-131.83 245.19,-176.45 207,-216 186.49,-237.25 163.93,-262.16 147.84,-280.22"/>
<polygon fill="black" stroke="black" points="140.94,-288 144.21,-277.53 144.26,-284.26 147.58,-280.52 147.58,-280.52 147.58,-280.52 144.26,-284.26 150.94,-283.51 140.94,-288 140.94,-288"/>
</g>
<!-- clak.comp.config&#45;&gt;clak.parser -->
<g id="edge16" class="edge">
<title>clak.comp.config&#45;&gt;clak.parser</title>
<path fill="none" stroke="black" d="M336.33,-108.13C338.2,-132.33 341.65,-176.79 343.88,-205.61"/>
<polygon fill="black" stroke="black" points="344.67,-215.81 339.41,-206.19 344.28,-210.83 343.9,-205.84 343.9,-205.84 343.9,-205.84 344.28,-210.83 348.38,-205.49 344.67,-215.81 344.67,-215.81"/>
</g>
<!-- clak.comp.logging&#45;&gt;clak.exception -->
<g id="edge17" class="edge">
<title>clak.comp.logging&#45;&gt;clak.exception</title>
<path fill="none" stroke="black" d="M546.94,-167.53C478.7,-173.43 374.77,-186.69 289,-216 241.31,-232.3 191.09,-261.87 159.21,-282.43"/>
<polygon fill="black" stroke="black" points="150.72,-287.98 156.63,-278.74 154.91,-285.24 159.09,-282.51 159.09,-282.51 159.09,-282.51 154.91,-285.24 161.55,-286.28 150.72,-287.98 150.72,-287.98"/>
</g>
<!-- clak.log_levels -->
<g id="node11" class="node">
<title>clak.log_levels</title>
<polygon fill="none" stroke="black" points="698.5,-540 579.5,-540 579.5,-504 698.5,-504 698.5,-540"/>
<text text-anchor="middle" x="639" y="-518.3" font-family="Times,serif" font-size="14.00">clak.log_levels</text>
</g>
<!-- clak.comp.logging&#45;&gt;clak.log_levels -->
<g id="edge18" class="edge">
<title>clak.comp.logging&#45;&gt;clak.log_levels</title>
<path fill="none" stroke="black" d="M632.72,-180.38C650.34,-206.19 680,-256.83 680,-305 680,-305 680,-305 680,-379 680,-420.59 663.56,-466.44 651.5,-494.49"/>
<polygon fill="black" stroke="black" points="647.3,-503.97 647.24,-493.01 649.32,-499.4 651.35,-494.83 651.35,-494.83 651.35,-494.83 649.32,-499.4 655.46,-496.65 647.3,-503.97 647.3,-503.97"/>
</g>
<!-- clak.comp.logging&#45;&gt;clak.parser -->
<g id="edge19" class="edge">
<title>clak.comp.logging&#45;&gt;clak.parser</title>
<path fill="none" stroke="black" d="M553.32,-180.03C507.76,-191.67 447.97,-206.95 404.31,-218.1"/>
<polygon fill="black" stroke="black" points="394.42,-220.63 402.99,-213.8 399.26,-219.39 404.11,-218.16 404.11,-218.16 404.11,-218.16 399.26,-219.39 405.22,-222.52 394.42,-220.63 394.42,-220.63"/>
</g>
<!-- clak.plugins -->
<g id="node14" class="node">
<title>clak.plugins</title>
<polygon fill="none" stroke="black" points="810,-252 708,-252 708,-216 810,-216 810,-252"/>
<text text-anchor="middle" x="759" y="-230.3" font-family="Times,serif" font-size="14.00">clak.plugins</text>
</g>
<!-- clak.comp.logging&#45;&gt;clak.plugins -->
<g id="edge20" class="edge">
<title>clak.comp.logging&#45;&gt;clak.plugins</title>
<path fill="none" stroke="black" d="M654,-180.12C672.6,-189.49 695.83,-201.19 715.71,-211.2"/>
<polygon fill="black" stroke="black" points="724.87,-215.81 713.91,-215.33 720.4,-213.56 715.93,-211.31 715.93,-211.31 715.93,-211.31 720.4,-213.56 717.96,-207.29 724.87,-215.81 724.87,-215.81"/>
</g>
<!-- clak.settings -->
<g id="node15" class="node">
<title>clak.settings</title>
<polygon fill="none" stroke="black" points="651.5,-468 544.5,-468 544.5,-432 651.5,-432 651.5,-468"/>
<text text-anchor="middle" x="598" y="-446.3" font-family="Times,serif" font-size="14.00">clak.settings</text>
</g>
<!-- clak.comp.logging&#45;&gt;clak.settings -->
<g id="edge21" class="edge">
<title>clak.comp.logging&#45;&gt;clak.settings</title>
<path fill="none" stroke="black" d="M621.11,-180.1C623.28,-218.83 626.85,-316.1 614,-396 612.61,-404.64 610.19,-413.83 607.64,-422.09"/>
<polygon fill="black" stroke="black" points="604.53,-431.61 603.36,-420.71 606.09,-426.86 607.64,-422.1 607.64,-422.1 607.64,-422.1 606.09,-426.86 611.92,-423.5 604.53,-431.61 604.53,-431.61"/>
</g>
<!-- clak.comp.views&#45;&gt;clak.comp.logging -->
<g id="edge22" class="edge">
<title>clak.comp.views&#45;&gt;clak.comp.logging</title>
<path fill="none" stroke="black" d="M720.46,-108.12C702.75,-117.45 680.65,-129.08 661.68,-139.06"/>
<polygon fill="black" stroke="black" points="652.66,-143.81 659.41,-135.17 657.09,-141.48 661.51,-139.15 661.51,-139.15 661.51,-139.15 657.09,-141.48 663.61,-143.13 652.66,-143.81 652.66,-143.81"/>
</g>
<!-- clak.comp.views&#45;&gt;clak.parser -->
<g id="edge23" class="edge">
<title>clak.comp.views&#45;&gt;clak.parser</title>
<path fill="none" stroke="black" d="M748.18,-108.24C741.46,-128.89 727.15,-162.83 702,-180 654.66,-212.33 492.3,-225.54 404.11,-230.43"/>
<polygon fill="black" stroke="black" points="394,-230.98 403.75,-225.95 398.99,-230.71 403.99,-230.44 403.99,-230.44 403.99,-230.44 398.99,-230.71 404.23,-234.93 394,-230.98 394,-230.98"/>
</g>
<!-- clak.comp.views&#45;&gt;clak.plugins -->
<g id="edge24" class="edge">
<title>clak.comp.views&#45;&gt;clak.plugins</title>
<path fill="none" stroke="black" d="M753.72,-108.13C754.75,-132.33 756.62,-176.79 757.84,-205.61"/>
<polygon fill="black" stroke="black" points="758.27,-215.81 753.36,-206.01 758.06,-210.82 757.85,-205.82 757.85,-205.82 757.85,-205.82 758.06,-210.82 762.35,-205.63 758.27,-215.81 758.27,-215.81"/>
</g>
<!-- clak.views -->
<g id="node17" class="node">
<title>clak.views</title>
<polygon fill="none" stroke="black" points="558,-324 468,-324 468,-288 558,-288 558,-324"/>
<text text-anchor="middle" x="513" y="-302.3" font-family="Times,serif" font-size="14.00">clak.views</text>
</g>
<!-- clak.comp.views&#45;&gt;clak.views -->
<g id="edge25" class="edge">
<title>clak.comp.views&#45;&gt;clak.views</title>
<path fill="none" stroke="black" d="M770.79,-108.33C801.13,-139.96 856.16,-207.86 819,-252 787.6,-289.31 647.81,-300.35 568.47,-303.62"/>
<polygon fill="black" stroke="black" points="558.17,-304.02 567.99,-299.14 563.16,-303.83 568.16,-303.64 568.16,-303.64 568.16,-303.64 563.16,-303.83 568.33,-308.13 558.17,-304.02 558.17,-304.02"/>
</g>
<!-- clak.descriptors -->
<g id="node9" class="node">
<title>clak.descriptors</title>
<polygon fill="none" stroke="black" points="411.5,-324 280.5,-324 280.5,-288 411.5,-288 411.5,-324"/>
<text text-anchor="middle" x="346" y="-302.3" font-family="Times,serif" font-size="14.00">clak.descriptors</text>
</g>
<!-- clak.descriptors&#45;&gt;clak.argparse_ -->
<g id="edge26" class="edge">
<title>clak.descriptors&#45;&gt;clak.argparse_</title>
<path fill="none" stroke="black" d="M307.35,-324.12C285.75,-333.69 258.65,-345.7 235.73,-355.85"/>
<polygon fill="black" stroke="black" points="226.53,-359.93 233.85,-351.77 231.1,-357.91 235.67,-355.88 235.67,-355.88 235.67,-355.88 231.1,-357.91 237.49,-360 226.53,-359.93 226.53,-359.93"/>
</g>
<!-- clak.descriptors&#45;&gt;clak.common -->
<g id="edge27" class="edge">
<title>clak.descriptors&#45;&gt;clak.common</title>
<path fill="none" stroke="black" d="M323.92,-324.02C313.36,-333.43 301.61,-346.03 295,-360 274.56,-403.2 272.88,-459.93 274.06,-493.23"/>
<polygon fill="black" stroke="black" points="274.55,-503.57 269.58,-493.79 274.31,-498.58 274.08,-493.58 274.08,-493.58 274.08,-493.58 274.31,-498.58 278.57,-493.37 274.55,-503.57 274.55,-503.57"/>
</g>
<!-- clak.nodes -->
<g id="node12" class="node">
<title>clak.nodes</title>
<polygon fill="none" stroke="black" points="396,-396 304,-396 304,-360 396,-360 396,-396"/>
<text text-anchor="middle" x="350" y="-374.3" font-family="Times,serif" font-size="14.00">clak.nodes</text>
</g>
<!-- clak.descriptors&#45;&gt;clak.nodes -->
<g id="edge28" class="edge">
<title>clak.descriptors&#45;&gt;clak.nodes</title>
<path fill="none" stroke="black" d="M346.99,-324.3C347.43,-332.02 347.96,-341.29 348.45,-349.89"/>
<polygon fill="black" stroke="black" points="349.02,-359.9 343.96,-350.17 348.74,-354.9 348.45,-349.91 348.45,-349.91 348.45,-349.91 348.74,-354.9 352.94,-349.66 349.02,-359.9 349.02,-359.9"/>
</g>
<!-- clak.parser&#45;&gt;clak -->
<g id="edge29" class="edge">
<title>clak.parser&#45;&gt;clak</title>
<path fill="none" stroke="black" d="M334.84,-215.9C316.18,-193.47 280.86,-151.77 267,-108 262.17,-92.75 259.56,-86.16 267,-72 274.24,-58.23 286.86,-47.34 299.34,-39.1"/>
<polygon fill="black" stroke="black" points="307.88,-33.82 301.74,-42.91 303.63,-36.45 299.38,-39.08 299.38,-39.08 299.38,-39.08 303.63,-36.45 297.01,-35.25 307.88,-33.82 307.88,-33.82"/>
</g>
<!-- clak.parser&#45;&gt;clak.argparse_ -->
<g id="edge30" class="edge">
<title>clak.parser&#45;&gt;clak.argparse_</title>
<path fill="none" stroke="black" d="M318.98,-252.13C304.25,-261.95 286.01,-274.89 271,-288 248.12,-307.97 224.77,-333.57 208.69,-352.19"/>
<polygon fill="black" stroke="black" points="202.05,-359.95 205.13,-349.42 205.3,-356.15 208.55,-352.35 208.55,-352.35 208.55,-352.35 205.3,-356.15 211.97,-355.27 202.05,-359.95 202.05,-359.95"/>
</g>
<!-- clak.parser&#45;&gt;clak.common -->
<g id="edge31" class="edge">
<title>clak.parser&#45;&gt;clak.common</title>
<path fill="none" stroke="black" d="M300.63,-252.1C278.97,-261.24 253.21,-273.59 232,-288 212.76,-301.07 213.16,-310.81 194,-324 163.55,-344.97 138.69,-328.71 119,-360 82.88,-417.4 168.07,-471.03 226.56,-499.58"/>
<polygon fill="black" stroke="black" points="235.7,-503.94 224.74,-503.69 231.19,-501.79 226.68,-499.63 226.68,-499.63 226.68,-499.63 231.19,-501.79 228.62,-495.57 235.7,-503.94 235.7,-503.94"/>
</g>
<!-- clak.parser&#45;&gt;clak.descriptors -->
<g id="edge32" class="edge">
<title>clak.parser&#45;&gt;clak.descriptors</title>
<path fill="none" stroke="black" d="M346,-252.3C346,-260.02 346,-269.29 346,-277.89"/>
<polygon fill="black" stroke="black" points="346,-287.9 341.5,-277.9 346,-282.9 346,-277.9 346,-277.9 346,-277.9 346,-282.9 350.5,-277.9 346,-287.9 346,-287.9"/>
</g>
<!-- clak.parser&#45;&gt;clak.exception -->
<g id="edge33" class="edge">
<title>clak.parser&#45;&gt;clak.exception</title>
<path fill="none" stroke="black" d="M297.99,-250.28C266.1,-260.42 223.87,-273.86 189.25,-284.88"/>
<polygon fill="black" stroke="black" points="179.7,-287.91 187.86,-280.59 184.46,-286.4 189.23,-284.88 189.23,-284.88 189.23,-284.88 184.46,-286.4 190.59,-289.17 179.7,-287.91 179.7,-287.91"/>
</g>
<!-- clak.parser&#45;&gt;clak.nodes -->
<g id="edge34" class="edge">
<title>clak.parser&#45;&gt;clak.nodes</title>
<path fill="none" stroke="black" d="M383.39,-252.2C397.54,-260.8 412.13,-272.68 420,-288 427.31,-302.23 427.12,-309.67 420,-324 414,-336.07 403.79,-346.13 392.99,-354.12"/>
<polygon fill="black" stroke="black" points="384.68,-359.83 390.38,-350.46 388.8,-357 392.92,-354.17 392.92,-354.17 392.92,-354.17 388.8,-357 395.47,-357.88 384.68,-359.83 384.68,-359.83"/>
</g>
<!-- clak.parser&#45;&gt;clak.settings -->
<g id="edge35" class="edge">
<title>clak.parser&#45;&gt;clak.settings</title>
<path fill="none" stroke="black" d="M394.23,-240.7C451.68,-248.45 542.93,-264.16 567,-288 602.46,-323.13 603.89,-385.67 601.27,-421.59"/>
<polygon fill="black" stroke="black" points="600.36,-431.83 596.76,-421.47 600.8,-426.85 601.24,-421.87 601.24,-421.87 601.24,-421.87 600.8,-426.85 605.73,-422.27 600.36,-431.83 600.36,-431.83"/>
</g>
<!-- clak.parser&#45;&gt;clak.views -->
<g id="edge36" class="edge">
<title>clak.parser&#45;&gt;clak.views</title>
<path fill="none" stroke="black" d="M386.85,-252.12C409.78,-261.74 438.58,-273.81 462.87,-283.99"/>
<polygon fill="black" stroke="black" points="472.28,-287.93 461.32,-288.22 467.67,-286 463.06,-284.07 463.06,-284.07 463.06,-284.07 467.67,-286 464.8,-279.92 472.28,-287.93 472.28,-287.93"/>
</g>
<!-- clak.settings&#45;&gt;clak.common -->
<g id="edge37" class="edge">
<title>clak.settings&#45;&gt;clak.common</title>
<path fill="none" stroke="black" d="M544.47,-462.64C488.6,-474.78 400.95,-493.84 341.1,-506.85"/>
<polygon fill="black" stroke="black" points="331.01,-509.04 339.83,-502.52 335.9,-507.98 340.78,-506.92 340.78,-506.92 340.78,-506.92 335.9,-507.98 341.74,-511.31 331.01,-509.04 331.01,-509.04"/>
</g>
<!-- clak.settings&#45;&gt;clak.log_levels -->
<g id="edge38" class="edge">
<title>clak.settings&#45;&gt;clak.log_levels</title>
<path fill="none" stroke="black" d="M608.13,-468.3C612.85,-476.36 618.56,-486.11 623.78,-495.02"/>
<polygon fill="black" stroke="black" points="628.98,-503.9 620.04,-497.54 626.45,-499.58 623.93,-495.27 623.93,-495.27 623.93,-495.27 626.45,-499.58 627.81,-492.99 628.98,-503.9 628.98,-503.9"/>
</g>
<!-- clak.table_formatter -->
<g id="node16" class="node">
<title>clak.table_formatter</title>
<polygon fill="none" stroke="black" points="575.5,-396 414.5,-396 414.5,-360 575.5,-360 575.5,-396"/>
<text text-anchor="middle" x="495" y="-374.3" font-family="Times,serif" font-size="14.00">clak.table_formatter</text>
</g>
<!-- clak.table_formatter&#45;&gt;clak.common -->
<g id="edge39" class="edge">
<title>clak.table_formatter&#45;&gt;clak.common</title>
<path fill="none" stroke="black" d="M468.58,-396.13C429.2,-421.66 355.05,-469.75 311.13,-498.22"/>
<polygon fill="black" stroke="black" points="302.51,-503.81 308.45,-494.59 306.71,-501.09 310.9,-498.37 310.9,-498.37 310.9,-498.37 306.71,-501.09 313.35,-502.15 302.51,-503.81 302.51,-503.81"/>
</g>
<!-- clak.table_formatter&#45;&gt;clak.settings -->
<g id="edge40" class="edge">
<title>clak.table_formatter&#45;&gt;clak.settings</title>
<path fill="none" stroke="black" d="M520.2,-396.12C533.41,-405.11 549.79,-416.24 564.11,-425.97"/>
<polygon fill="black" stroke="black" points="572.71,-431.81 561.91,-429.91 568.57,-429 564.44,-426.19 564.44,-426.19 564.44,-426.19 568.57,-429 566.97,-422.47 572.71,-431.81 572.71,-431.81"/>
</g>
<!-- clak.views&#45;&gt;clak.table_formatter -->
<g id="edge41" class="edge">
<title>clak.views&#45;&gt;clak.table_formatter</title>
<path fill="none" stroke="black" d="M508.55,-324.3C506.55,-332.1 504.13,-341.49 501.9,-350.17"/>
<polygon fill="black" stroke="black" points="499.4,-359.9 497.53,-349.09 500.64,-355.05 501.89,-350.21 501.89,-350.21 501.89,-350.21 500.64,-355.05 506.25,-351.33 499.4,-359.9 499.4,-359.9"/>
</g>
</g>
</svg>
