<?xml version="1.0" encoding="UTF-8" standalone="no"?>
<!DOCTYPE svg PUBLIC "-//W3C//DTD SVG 1.1//EN"
 "http://www.w3.org/Graphics/SVG/1.1/DTD/svg11.dtd">
<!-- Generated by graphviz version 2.43.0 (0)
 -->
<!-- Title: packages_clak Pages: 1 -->
<svg width="176pt" height="260pt"
 viewBox="0.00 0.00 176.00 260.00" xmlns="http://www.w3.org/2000/svg" xmlns:xlink="http://www.w3.org/1999/xlink">
<g id="graph0" class="graph" transform="scale(1 1) rotate(0) translate(4 256)">
<title>packages_clak</title>
<polygon fill="white" stroke="transparent" points="-4,4 -4,-256 172,-256 172,4 -4,4"/>
<!-- clak -->
<g id="node1" class="node">
<title>clak</title>
<polygon fill="none" stroke="black" points="103,-36 49,-36 49,0 103,0 103,-36"/>
<text text-anchor="middle" x="76" y="-14.3" font-family="Times,serif" font-size="14.00">clak</text>
</g>
<!-- clak.fields -->
<g id="node2" class="node">
<title>clak.fields</title>
<polygon fill="none" stroke="black" points="88,-180 0,-180 0,-144 88,-144 88,-180"/>
<text text-anchor="middle" x="44" y="-158.3" font-family="Times,serif" font-size="14.00">clak.fields</text>
</g>
<!-- clak&#45;&gt;clak.fields -->
<g id="edge1" class="edge">
<title>clak&#45;&gt;clak.fields</title>
<path fill="none" stroke="black" d="M67.85,-36.29C63.39,-46.48 58.14,-59.73 55,-72 49.81,-92.33 47.03,-115.93 45.57,-133.71"/>
<polygon fill="black" stroke="black" points="44.84,-143.7 41.08,-133.39 45.2,-138.71 45.57,-133.72 45.57,-133.72 45.57,-133.72 45.2,-138.71 50.06,-134.05 44.84,-143.7 44.84,-143.7"/>
</g>
<!-- clak.parsers -->
<g id="node4" class="node">
<title>clak.parsers</title>
<polygon fill="none" stroke="black" points="168,-108 64,-108 64,-72 168,-72 168,-108"/>
<text text-anchor="middle" x="116" y="-86.3" font-family="Times,serif" font-size="14.00">clak.parsers</text>
</g>
<!-- clak&#45;&gt;clak.parsers -->
<g id="edge2" class="edge">
<title>clak&#45;&gt;clak.parsers</title>
<path fill="none" stroke="black" d="M85.89,-36.3C90.49,-44.36 96.06,-54.11 101.15,-63.02"/>
<polygon fill="black" stroke="black" points="106.23,-71.9 97.36,-65.45 103.75,-67.55 101.26,-63.21 101.26,-63.21 101.26,-63.21 103.75,-67.55 105.17,-60.98 106.23,-71.9 106.23,-71.9"/>
</g>
<!-- clak.formatters -->
<g id="node3" class="node">
<title>clak.formatters</title>
<polygon fill="none" stroke="black" points="143,-252 17,-252 17,-216 143,-216 143,-252"/>
<text text-anchor="middle" x="80" y="-230.3" font-family="Times,serif" font-size="14.00">clak.formatters</text>
</g>
<!-- clak.fields&#45;&gt;clak.formatters -->
<g id="edge3" class="edge">
<title>clak.fields&#45;&gt;clak.formatters</title>
<path fill="none" stroke="black" d="M52.9,-180.3C57,-188.27 61.95,-197.9 66.49,-206.74"/>
<polygon fill="black" stroke="black" points="71.2,-215.9 62.63,-209.06 68.92,-211.45 66.63,-207 66.63,-207 66.63,-207 68.92,-211.45 70.63,-204.94 71.2,-215.9 71.2,-215.9"/>
</g>
<!-- clak.parsers&#45;&gt;clak.fields -->
<g id="edge4" class="edge">
<title>clak.parsers&#45;&gt;clak.fields</title>
<path fill="none" stroke="black" d="M98.2,-108.3C89.4,-116.86 78.62,-127.34 69,-136.7"/>
<polygon fill="black" stroke="black" points="61.59,-143.9 65.63,-133.7 65.18,-140.41 68.76,-136.92 68.76,-136.92 68.76,-136.92 65.18,-140.41 71.9,-140.15 61.59,-143.9 61.59,-143.9"/>
</g>
<!-- clak.parsers&#45;&gt;clak.formatters -->
<g id="edge5" class="edge">
<title>clak.parsers&#45;&gt;clak.formatters</title>
<path fill="none" stroke="black" d="M112.86,-108.18C109.45,-126.2 103.59,-155.27 97,-180 94.7,-188.63 91.85,-197.94 89.14,-206.31"/>
<polygon fill="black" stroke="black" points="85.95,-215.94 84.82,-205.04 87.52,-211.2 89.09,-206.45 89.09,-206.45 89.09,-206.45 87.52,-211.2 93.36,-207.86 85.95,-215.94 85.95,-215.94"/>
</g>
</g>
</svg>
