<?xml version="1.0" encoding="UTF-8" standalone="no"?>
<!DOCTYPE svg PUBLIC "-//W3C//DTD SVG 1.1//EN"
 "http://www.w3.org/Graphics/SVG/1.1/DTD/svg11.dtd">
<!-- Generated by graphviz version 2.43.0 (0)
 -->
<!-- Title: packages_clak Pages: 1 -->
<svg width="718pt" height="548pt"
 viewBox="0.00 0.00 718.00 548.00" xmlns="http://www.w3.org/2000/svg" xmlns:xlink="http://www.w3.org/1999/xlink">
<g id="graph0" class="graph" transform="scale(1 1) rotate(0) translate(4 544)">
<title>packages_clak</title>
<polygon fill="white" stroke="transparent" points="-4,4 -4,-544 714,-544 714,4 -4,4"/>
<!-- clak -->
<g id="node1" class="node">
<title>clak</title>
<polygon fill="none" stroke="black" points="293,-36 239,-36 239,0 293,0 293,-36"/>
<text text-anchor="middle" x="266" y="-14.3" font-family="Times,serif" font-size="14.00">clak</text>
</g>
<!-- clak.argparse_ -->
<g id="node2" class="node">
<title>clak.argparse_</title>
<polygon fill="none" stroke="black" points="120,-324 0,-324 0,-288 120,-288 120,-324"/>
<text text-anchor="middle" x="60" y="-302.3" font-family="Times,serif" font-size="14.00">clak.argparse_</text>
</g>
<!-- clak&#45;&gt;clak.argparse_ -->
<g id="edge1" class="edge">
<title>clak&#45;&gt;clak.argparse_</title>
<path fill="none" stroke="black" d="M253.73,-36.03C218.96,-84.3 119.64,-222.2 78.35,-279.53"/>
<polygon fill="black" stroke="black" points="72.47,-287.69 74.66,-276.95 75.39,-283.64 78.31,-279.58 78.31,-279.58 78.31,-279.58 75.39,-283.64 81.96,-282.21 72.47,-287.69 72.47,-287.69"/>
</g>
<!-- clak.comp.completion -->
<g id="node5" class="node">
<title>clak.comp.completion</title>
<polygon fill="none" stroke="black" points="613.5,-108 442.5,-108 442.5,-72 613.5,-72 613.5,-108"/>
<text text-anchor="middle" x="528" y="-86.3" font-family="Times,serif" font-size="14.00">clak.comp.completion</text>
</g>
<!-- clak&#45;&gt;clak.comp.completion -->
<g id="edge2" class="edge">
<title>clak&#45;&gt;clak.comp.completion</title>
<path fill="none" stroke="black" d="M293.05,-26.23C330.78,-36.31 400.6,-54.96 454.36,-69.33"/>
<polygon fill="black" stroke="black" points="464.2,-71.95 453.38,-73.72 459.37,-70.66 454.54,-69.37 454.54,-69.37 454.54,-69.37 459.37,-70.66 455.7,-65.03 464.2,-71.95 464.2,-71.95"/>
</g>
<!-- clak.comp.config -->
<g id="node6" class="node">
<title>clak.comp.config</title>
<polygon fill="none" stroke="black" points="385.5,-108 250.5,-108 250.5,-72 385.5,-72 385.5,-108"/>
<text text-anchor="middle" x="318" y="-86.3" font-family="Times,serif" font-size="14.00">clak.comp.config</text>
</g>
<!-- clak&#45;&gt;clak.comp.config -->
<g id="edge3" class="edge">
<title>clak&#45;&gt;clak.comp.config</title>
<path fill="none" stroke="black" d="M278.85,-36.3C285.03,-44.61 292.54,-54.72 299.32,-63.86"/>
<polygon fill="black" stroke="black" points="305.29,-71.9 295.72,-66.55 302.31,-67.88 299.33,-63.87 299.33,-63.87 299.33,-63.87 302.31,-67.88 302.94,-61.18 305.29,-71.9 305.29,-71.9"/>
</g>
<!-- clak.comp.logging -->
<g id="node7" class="node">
<title>clak.comp.logging</title>
<polygon fill="none" stroke="black" points="577,-180 431,-180 431,-144 577,-144 577,-180"/>
<text text-anchor="middle" x="504" y="-158.3" font-family="Times,serif" font-size="14.00">clak.comp.logging</text>
</g>
<!-- clak&#45;&gt;clak.comp.logging -->
<g id="edge4" class="edge">
<title>clak&#45;&gt;clak.comp.logging</title>
<path fill="none" stroke="black" d="M293.04,-26.98C320.11,-35.68 362.34,-51.17 395,-72 414.89,-84.68 415.91,-92.86 434,-108 446.16,-118.17 459.99,-128.83 472.13,-137.89"/>
<polygon fill="black" stroke="black" points="480.22,-143.89 469.51,-141.55 476.21,-140.91 472.19,-137.94 472.19,-137.94 472.19,-137.94 476.21,-140.91 474.87,-134.32 480.22,-143.89 480.22,-143.89"/>
</g>
<!-- clak.parser -->
<g id="node10" class="node">
<title>clak.parser</title>
<polygon fill="none" stroke="black" points="366,-252 270,-252 270,-216 366,-216 366,-252"/>
<text text-anchor="middle" x="318" y="-230.3" font-family="Times,serif" font-size="14.00">clak.parser</text>
</g>
<!-- clak&#45;&gt;clak.parser -->
<g id="edge5" class="edge">
<title>clak&#45;&gt;clak.parser</title>
<path fill="none" stroke="black" d="M248.17,-36.02C241.73,-46.11 235.73,-59.36 233,-72 229.62,-87.64 228.68,-92.59 233,-108 243.71,-146.23 269.68,-184.38 290.33,-208.3"/>
<polygon fill="black" stroke="black" points="297.1,-215.84 287.07,-211.4 293.76,-212.12 290.42,-208.4 290.42,-208.4 290.42,-208.4 293.76,-212.12 293.77,-205.39 297.1,-215.84 297.1,-215.84"/>
</g>
<!-- clak.common -->
<g id="node3" class="node">
<title>clak.common</title>
<polygon fill="none" stroke="black" points="311,-540 201,-540 201,-504 311,-504 311,-540"/>
<text text-anchor="middle" x="256" y="-518.3" font-family="Times,serif" font-size="14.00">clak.common</text>
</g>
<!-- clak.comp -->
<g id="node4" class="node">
<title>clak.comp</title>
<polygon fill="none" stroke="black" points="572,-36 484,-36 484,0 572,0 572,-36"/>
<text text-anchor="middle" x="528" y="-14.3" font-family="Times,serif" font-size="14.00">clak.comp</text>
</g>
<!-- clak.comp&#45;&gt;clak.comp.completion -->
<g id="edge6" class="edge">
<title>clak.comp&#45;&gt;clak.comp.completion</title>
<path fill="none" stroke="black" d="M528,-36.3C528,-44.02 528,-53.29 528,-61.89"/>
<polygon fill="black" stroke="black" points="528,-71.9 523.5,-61.9 528,-66.9 528,-61.9 528,-61.9 528,-61.9 528,-66.9 532.5,-61.9 528,-71.9 528,-71.9"/>
</g>
<!-- clak.comp&#45;&gt;clak.comp.config -->
<g id="edge7" class="edge">
<title>clak.comp&#45;&gt;clak.comp.config</title>
<path fill="none" stroke="black" d="M483.98,-33.67C453.55,-43.82 412.66,-57.45 379.08,-68.64"/>
<polygon fill="black" stroke="black" points="369.37,-71.88 377.43,-64.45 374.11,-70.3 378.85,-68.72 378.85,-68.72 378.85,-68.72 374.11,-70.3 380.28,-72.98 369.37,-71.88 369.37,-71.88"/>
</g>
<!-- clak.comp&#45;&gt;clak.comp.logging -->
<g id="edge8" class="edge">
<title>clak.comp&#45;&gt;clak.comp.logging</title>
<path fill="none" stroke="black" d="M572.21,-32.27C591.36,-40.46 611.91,-53.11 623,-72 631.1,-85.8 631.71,-94.58 623,-108 614.08,-121.74 600.67,-131.95 586.03,-139.53"/>
<polygon fill="black" stroke="black" points="576.79,-143.91 583.9,-135.56 581.31,-141.77 585.83,-139.63 585.83,-139.63 585.83,-139.63 581.31,-141.77 587.75,-143.69 576.79,-143.91 576.79,-143.91"/>
</g>
<!-- clak.comp.completion&#45;&gt;clak.comp.logging -->
<g id="edge9" class="edge">
<title>clak.comp.completion&#45;&gt;clak.comp.logging</title>
<path fill="none" stroke="black" d="M522.07,-108.3C519.39,-116.1 516.17,-125.49 513.2,-134.17"/>
<polygon fill="black" stroke="black" points="509.86,-143.9 508.85,-132.98 511.49,-139.17 513.11,-134.44 513.11,-134.44 513.11,-134.44 511.49,-139.17 517.36,-135.9 509.86,-143.9 509.86,-143.9"/>
</g>
<!-- clak.comp.completion&#45;&gt;clak.parser -->
<g id="edge10" class="edge">
<title>clak.comp.completion&#45;&gt;clak.parser</title>
<path fill="none" stroke="black" d="M488.22,-108.07C467.77,-117.54 442.83,-130.18 422,-144 392.85,-163.34 362.84,-189.86 342.59,-208.91"/>
<polygon fill="black" stroke="black" points="335.34,-215.82 339.48,-205.67 338.96,-212.37 342.58,-208.93 342.58,-208.93 342.58,-208.93 338.96,-212.37 345.68,-212.19 335.34,-215.82 335.34,-215.82"/>
</g>
<!-- clak.comp.config&#45;&gt;clak.comp.logging -->
<g id="edge11" class="edge">
<title>clak.comp.config&#45;&gt;clak.comp.logging</title>
<path fill="none" stroke="black" d="M363.5,-108.12C389.38,-117.86 421.97,-130.13 449.24,-140.39"/>
<polygon fill="black" stroke="black" points="458.65,-143.93 447.7,-144.62 453.97,-142.17 449.29,-140.41 449.29,-140.41 449.29,-140.41 453.97,-142.17 450.87,-136.2 458.65,-143.93 458.65,-143.93"/>
</g>
<!-- clak.comp.config&#45;&gt;clak.parser -->
<g id="edge12" class="edge">
<title>clak.comp.config&#45;&gt;clak.parser</title>
<path fill="none" stroke="black" d="M318,-108.13C318,-132.33 318,-176.79 318,-205.61"/>
<polygon fill="black" stroke="black" points="318,-215.81 313.5,-205.81 318,-210.81 318,-205.81 318,-205.81 318,-205.81 318,-210.81 322.5,-205.81 318,-215.81 318,-215.81"/>
</g>
<!-- clak.exception -->
<g id="node8" class="node">
<title>clak.exception</title>
<polygon fill="none" stroke="black" points="551.5,-324 432.5,-324 432.5,-288 551.5,-288 551.5,-324"/>
<text text-anchor="middle" x="492" y="-302.3" font-family="Times,serif" font-size="14.00">clak.exception</text>
</g>
<!-- clak.comp.logging&#45;&gt;clak.exception -->
<g id="edge13" class="edge">
<title>clak.comp.logging&#45;&gt;clak.exception</title>
<path fill="none" stroke="black" d="M502.55,-180.13C500.51,-204.33 496.75,-248.79 494.31,-277.61"/>
<polygon fill="black" stroke="black" points="493.45,-287.81 489.81,-277.47 493.87,-282.83 494.29,-277.85 494.29,-277.85 494.29,-277.85 493.87,-282.83 498.78,-278.23 493.45,-287.81 493.45,-287.81"/>
</g>
<!-- clak.comp.logging&#45;&gt;clak.parser -->
<g id="edge14" class="edge">
<title>clak.comp.logging&#45;&gt;clak.parser</title>
<path fill="none" stroke="black" d="M458.5,-180.12C432.62,-189.86 400.03,-202.13 372.76,-212.39"/>
<polygon fill="black" stroke="black" points="363.35,-215.93 371.13,-208.2 368.03,-214.17 372.71,-212.41 372.71,-212.41 372.71,-212.41 368.03,-214.17 374.3,-216.62 363.35,-215.93 363.35,-215.93"/>
</g>
<!-- clak.plugins -->
<g id="node11" class="node">
<title>clak.plugins</title>
<polygon fill="none" stroke="black" points="710,-252 608,-252 608,-216 710,-216 710,-252"/>
<text text-anchor="middle" x="659" y="-230.3" font-family="Times,serif" font-size="14.00">clak.plugins</text>
</g>
<!-- clak.comp.logging&#45;&gt;clak.plugins -->
<g id="edge15" class="edge">
<title>clak.comp.logging&#45;&gt;clak.plugins</title>
<path fill="none" stroke="black" d="M541.92,-180.12C563.01,-189.65 589.46,-201.59 611.87,-211.72"/>
<polygon fill="black" stroke="black" points="621.21,-215.93 610.24,-215.92 616.65,-213.87 612.09,-211.82 612.09,-211.82 612.09,-211.82 616.65,-213.87 613.94,-207.71 621.21,-215.93 621.21,-215.93"/>
</g>
<!-- clak.settings -->
<g id="node12" class="node">
<title>clak.settings</title>
<polygon fill="none" stroke="black" points="424.5,-468 317.5,-468 317.5,-432 424.5,-432 424.5,-468"/>
<text text-anchor="middle" x="371" y="-446.3" font-family="Times,serif" font-size="14.00">clak.settings</text>
</g>
<!-- clak.comp.logging&#45;&gt;clak.settings -->
<g id="edge16" class="edge">
<title>clak.comp.logging&#45;&gt;clak.settings</title>
<path fill="none" stroke="black" d="M519.13,-180.17C543.85,-210.42 587.59,-274.67 561,-324 533.54,-374.94 475.24,-408.53 430.41,-427.93"/>
<polygon fill="black" stroke="black" points="421.07,-431.86 428.54,-423.84 425.68,-429.92 430.29,-427.98 430.29,-427.98 430.29,-427.98 425.68,-429.92 432.03,-432.13 421.07,-431.86 421.07,-431.86"/>
</g>
<!-- clak.nodes -->
<g id="node9" class="node">
<title>clak.nodes</title>
<polygon fill="none" stroke="black" points="376,-324 284,-324 284,-288 376,-288 376,-324"/>
<text text-anchor="middle" x="330" y="-302.3" font-family="Times,serif" font-size="14.00">clak.nodes</text>
</g>
<!-- clak.parser&#45;&gt;clak -->
<g id="edge17" class="edge">
<title>clak.parser&#45;&gt;clak</title>
<path fill="none" stroke="black" d="M309.45,-215.84C293.75,-193.01 262.92,-150.55 251,-108 246.68,-92.59 247.62,-87.64 251,-72 252.94,-63.02 256.53,-53.72 259.95,-45.47"/>
<polygon fill="black" stroke="black" points="263.92,-36.02 264.2,-46.98 261.99,-40.63 260.05,-45.24 260.05,-45.24 260.05,-45.24 261.99,-40.63 255.9,-43.5 263.92,-36.02 263.92,-36.02"/>
</g>
<!-- clak.parser&#45;&gt;clak.argparse_ -->
<g id="edge18" class="edge">
<title>clak.parser&#45;&gt;clak.argparse_</title>
<path fill="none" stroke="black" d="M269.77,-248.08C230.45,-258.75 174.38,-273.97 130.09,-285.98"/>
<polygon fill="black" stroke="black" points="120.26,-288.65 128.73,-281.69 125.08,-287.34 129.91,-286.03 129.91,-286.03 129.91,-286.03 125.08,-287.34 131.09,-290.37 120.26,-288.65 120.26,-288.65"/>
</g>
<!-- clak.parser&#45;&gt;clak.common -->
<g id="edge19" class="edge">
<title>clak.parser&#45;&gt;clak.common</title>
<path fill="none" stroke="black" d="M299.41,-252.33C290.4,-261.92 280.38,-274.58 275,-288 246.94,-357.95 249.59,-449.01 253.16,-493.76"/>
<polygon fill="black" stroke="black" points="254.05,-503.84 248.69,-494.27 253.61,-498.86 253.17,-493.88 253.17,-493.88 253.17,-493.88 253.61,-498.86 257.66,-493.49 254.05,-503.84 254.05,-503.84"/>
</g>
<!-- clak.parser&#45;&gt;clak.exception -->
<g id="edge20" class="edge">
<title>clak.parser&#45;&gt;clak.exception</title>
<path fill="none" stroke="black" d="M360.57,-252.12C384.56,-261.78 414.73,-273.91 440.1,-284.12"/>
<polygon fill="black" stroke="black" points="449.57,-287.93 438.62,-288.37 444.93,-286.07 440.3,-284.2 440.3,-284.2 440.3,-284.2 444.93,-286.07 441.98,-280.02 449.57,-287.93 449.57,-287.93"/>
</g>
<!-- clak.parser&#45;&gt;clak.nodes -->
<g id="edge21" class="edge">
<title>clak.parser&#45;&gt;clak.nodes</title>
<path fill="none" stroke="black" d="M320.97,-252.3C322.29,-260.02 323.88,-269.29 325.35,-277.89"/>
<polygon fill="black" stroke="black" points="327.07,-287.9 320.94,-278.8 326.22,-282.97 325.38,-278.04 325.38,-278.04 325.38,-278.04 326.22,-282.97 329.81,-277.28 327.07,-287.9 327.07,-287.9"/>
</g>
<!-- clak.parser&#45;&gt;clak.settings -->
<g id="edge22" class="edge">
<title>clak.parser&#45;&gt;clak.settings</title>
<path fill="none" stroke="black" d="M350.53,-252.02C363.79,-260.82 377.7,-272.91 385,-288 406.05,-331.48 392.45,-389.31 381.29,-422.51"/>
<polygon fill="black" stroke="black" points="377.94,-431.98 377.03,-421.05 379.61,-427.27 381.27,-422.55 381.27,-422.55 381.27,-422.55 379.61,-427.27 385.52,-424.05 377.94,-431.98 377.94,-431.98"/>
</g>
<!-- clak.views -->
<g id="node14" class="node">
<title>clak.views</title>
<polygon fill="none" stroke="black" points="228,-324 138,-324 138,-288 228,-288 228,-324"/>
<text text-anchor="middle" x="183" y="-302.3" font-family="Times,serif" font-size="14.00">clak.views</text>
</g>
<!-- clak.parser&#45;&gt;clak.views -->
<g id="edge23" class="edge">
<title>clak.parser&#45;&gt;clak.views</title>
<path fill="none" stroke="black" d="M284.98,-252.12C266.92,-261.49 244.35,-273.19 225.05,-283.2"/>
<polygon fill="black" stroke="black" points="216.15,-287.81 222.96,-279.21 220.59,-285.51 225.03,-283.21 225.03,-283.21 225.03,-283.21 220.59,-285.51 227.1,-287.2 216.15,-287.81 216.15,-287.81"/>
</g>
<!-- clak.settings&#45;&gt;clak.common -->
<g id="edge24" class="edge">
<title>clak.settings&#45;&gt;clak.common</title>
<path fill="none" stroke="black" d="M342.87,-468.12C327.83,-477.28 309.13,-488.66 292.94,-498.52"/>
<polygon fill="black" stroke="black" points="284.24,-503.81 290.44,-494.77 288.51,-501.21 292.78,-498.61 292.78,-498.61 292.78,-498.61 288.51,-501.21 295.12,-502.45 284.24,-503.81 284.24,-503.81"/>
</g>
<!-- clak.table_formatter -->
<g id="node13" class="node">
<title>clak.table_formatter</title>
<polygon fill="none" stroke="black" points="227.5,-396 66.5,-396 66.5,-360 227.5,-360 227.5,-396"/>
<text text-anchor="middle" x="147" y="-374.3" font-family="Times,serif" font-size="14.00">clak.table_formatter</text>
</g>
<!-- clak.table_formatter&#45;&gt;clak.common -->
<g id="edge25" class="edge">
<title>clak.table_formatter&#45;&gt;clak.common</title>
<path fill="none" stroke="black" d="M160.15,-396.13C179.22,-420.97 214.67,-467.15 236.7,-495.86"/>
<polygon fill="black" stroke="black" points="242.81,-503.81 233.15,-498.62 239.76,-499.84 236.72,-495.88 236.72,-495.88 236.72,-495.88 239.76,-499.84 240.29,-493.14 242.81,-503.81 242.81,-503.81"/>
</g>
<!-- clak.table_formatter&#45;&gt;clak.settings -->
<g id="edge26" class="edge">
<title>clak.table_formatter&#45;&gt;clak.settings</title>
<path fill="none" stroke="black" d="M201.51,-396.03C233.57,-406.05 274.25,-418.77 307.72,-429.23"/>
<polygon fill="black" stroke="black" points="317.41,-432.25 306.52,-433.57 312.64,-430.76 307.86,-429.27 307.86,-429.27 307.86,-429.27 312.64,-430.76 309.21,-424.97 317.41,-432.25 317.41,-432.25"/>
</g>
<!-- clak.views&#45;&gt;clak.table_formatter -->
<g id="edge27" class="edge">
<title>clak.views&#45;&gt;clak.table_formatter</title>
<path fill="none" stroke="black" d="M174.1,-324.3C170,-332.27 165.05,-341.9 160.51,-350.74"/>
<polygon fill="black" stroke="black" points="155.8,-359.9 156.37,-348.94 158.08,-355.45 160.37,-351 160.37,-351 160.37,-351 158.08,-355.45 164.37,-353.06 155.8,-359.9 155.8,-359.9"/>
</g>
</g>
</svg>
