<?xml version="1.0" encoding="UTF-8" standalone="no"?>
<!DOCTYPE svg PUBLIC "-//W3C//DTD SVG 1.1//EN"
 "http://www.w3.org/Graphics/SVG/1.1/DTD/svg11.dtd">
<!-- Generated by graphviz version 2.43.0 (0)
 -->
<!-- Title: classes_clak Pages: 1 -->
<svg width="490pt" height="95pt"
 viewBox="0.00 0.00 490.00 94.80" xmlns="http://www.w3.org/2000/svg" xmlns:xlink="http://www.w3.org/1999/xlink">
<g id="graph0" class="graph" transform="scale(1 1) rotate(0) translate(4 90.8)">
<title>classes_clak</title>
<polygon fill="white" stroke="transparent" points="-4,4 -4,-90.8 486,-90.8 486,4 -4,4"/>
<!-- clak.common.CleandocProxy -->
<g id="node1" class="node">
<title>clak.common.CleandocProxy</title>
<polygon fill="none" stroke="black" points="0,-8 0,-78.8 221,-78.8 221,-8 0,-8"/>
<text text-anchor="start" x="8" y="-63.6" font-family="Times,serif" font-size="14.00">clak.common.CleandocProxy</text>
<polyline fill="none" stroke="black" points="0,-55.8 221,-55.8 "/>
<polyline fill="none" stroke="black" points="0,-31 221,-31 "/>
<text text-anchor="start" x="108" y="-15.8" font-family="Times,serif" font-size="14.00"> </text>
</g>
<!-- clak.common.ObjectNamespace -->
<g id="node2" class="node">
<title>clak.common.ObjectNamespace</title>
<polygon fill="none" stroke="black" points="239,-0.5 239,-86.3 482,-86.3 482,-0.5 239,-0.5"/>
<text text-anchor="start" x="247" y="-71.1" font-family="Times,serif" font-size="14.00">clak.common.ObjectNamespace</text>
<polyline fill="none" stroke="black" points="239,-63.3 482,-63.3 "/>
<polyline fill="none" stroke="black" points="239,-38.5 482,-38.5 "/>
<text text-anchor="start" x="302.5" y="-23.3" font-family="Times,serif" font-size="14.00">get(key, default)</text>
<text text-anchor="start" x="302.5" y="-8.3" font-family="Times,serif" font-size="14.00">update()</text>
</g>
</g>
</svg>
